<?xml version="1.0" standalone="no"?>
<!DOCTYPE svg PUBLIC "-//W3C//DTD SVG 1.1//EN" "http://www.w3.org/Graphics/SVG/1.1/DTD/svg11.dtd" >
<svg xmlns="http://www.w3.org/2000/svg">
<metadata>
This is a custom SVG webfont generated by Font Squirrel.
Copyright   : Copyright c 2010 by Jorge de Buen U para OmnibusType All rights reserved
Designer    : Jorge de Buen U
Foundry     : Jorge de Buen U para OmnibusType
</metadata>
<defs>
<font id="UnnaRegular" horiz-adv-x="942" >
<font-face units-per-em="2048" ascent="1638" descent="-410" />
<missing-glyph horiz-adv-x="450" />
<glyph unicode=" "  horiz-adv-x="450" />
<glyph unicode="&#x09;" horiz-adv-x="450" />
<glyph unicode="&#xa0;" horiz-adv-x="450" />
<glyph unicode="!" horiz-adv-x="550" d="M184 98q0 49 39 83t94.5 34t93.5 -35t38 -84q0 -47 -40 -81.5t-94 -34.5q-51 0 -91 34.5t-40 83.5zM215 1204q0 47 26.5 74t73.5 27q49 0 76 -27t27 -74q0 -55 -12 -139l-27 -188q-14 -100 -26.5 -211t-12.5 -222q0 -33 -23 -32q-25 0 -24 32q0 111 -12.5 221.5 t-26.5 211.5l-27 188q-12 84 -12 139z" />
<glyph unicode="&#x22;" horiz-adv-x="516" d="M70 1229q0 39 18 60.5t49 21.5t49.5 -21.5t18.5 -60.5l-41 -357q0 -14 -7 -24t-19.5 -10t-19.5 10t-7 24zM311 1229q0 39 18.5 60.5t49.5 21.5t49 -21.5t18 -60.5l-40 -357q0 -14 -7.5 -24t-19.5 -10t-19.5 10t-7.5 24z" />
<glyph unicode="#" horiz-adv-x="1034" d="M37 397l22 82h203l107 350h-205l22 82h205l121 398h82l-121 -398h234l120 398h82l-118 -398h206l-22 -82h-209l-104 -350h206l-24 -82h-207l-125 -415h-82l125 415h-233l-125 -415h-82l125 415h-203zM344 479h236l104 350h-233z" />
<glyph unicode="$" horiz-adv-x="954" d="M178 276v218l39 2q16 -92 85 -149.5t165 -57.5q66 0 101.5 33.5t35.5 89.5q0 47 -24.5 76.5t-90.5 46.5l-163 45q-66 16 -107 65t-41 119q0 86 65.5 141.5t178.5 59.5v360h76v-369q41 -8 76.5 -18t64.5 -10q23 0 47 14l-10 -186h-37q0 61 -53.5 112.5t-147.5 51.5 q-66 0 -101.5 -27t-35.5 -86q0 -39 26.5 -67.5t80.5 -43.5l165 -45q86 -23 120 -68.5t34 -115.5q0 -100 -63.5 -155.5t-165.5 -65.5v-441h-76v441q-59 6 -111.5 23.5t-83.5 17.5q-33 -1 -49 -11z" />
<glyph unicode="%" horiz-adv-x="1122" d="M0 -106l1047 1470l75 -45l-1048 -1477zM61 1102q0 145 71 218t179 73q111 0 181.5 -74t70.5 -217q0 -145 -69.5 -218t-182.5 -73q-115 0 -182.5 75t-67.5 216zM193 1102q0 -74 9 -123t24.5 -78t37 -40t47.5 -11q53 0 87 53t34 199q0 74 -9 123t-24.5 78.5t-38 41 t-49.5 11.5q-53 0 -85.5 -55.5t-32.5 -198.5zM614 152q0 145 71 217.5t179 72.5q111 0 181.5 -73.5t70.5 -216.5q0 -145 -69.5 -218t-182.5 -73q-115 0 -182.5 75t-67.5 216zM745 152q0 -74 9.5 -123t25 -78t37 -40t47.5 -11q53 0 87 53t34 199q0 74 -9 123t-24.5 78.5 t-38 41t-49.5 11.5q-53 0 -86 -55.5t-33 -198.5z" />
<glyph unicode="&#x26;" horiz-adv-x="1249" d="M45 334q0 106 39 187t131 147l150 106q-49 63 -72 129t-23 105q0 49 20.5 92t57.5 74.5t85 49t104 17.5q123 0 188.5 -53t65.5 -158q0 -49 -23 -99t-63 -73l-117 -74l289 -393q20 49 32.5 89t20.5 77t11 75t3 83q0 18 -6 32.5t-23 14.5l-94 -4v59h309v-59l-94 4 q-27 0 -26 -45q0 -197 -90 -387l184 -250q20 -27 61 -27l115 4v-57h-342l-123 166q-27 -35 -59.5 -69t-76.5 -60.5t-101.5 -41.5t-135 -15t-149.5 23.5t-127 68.5t-88 110.5t-33 151.5zM227 350q0 -63 20.5 -119.5t56.5 -97.5t86 -65.5t110 -24.5q156 0 278 172l-370 502 l-35 -29q-72 -53 -109 -146.5t-37 -191.5zM428 1055q0 -20 3 -37t11.5 -34t24.5 -40l41 -55l37 -47l90 73q41 41 41 117q0 66 -40 109t-91 43q-47 0 -82 -38t-35 -91z" />
<glyph unicode="'" horiz-adv-x="272" d="M70 1229q0 39 18 60.5t49 21.5t49.5 -21.5t18.5 -60.5l-41 -357q0 -14 -7 -24t-19.5 -10t-19.5 10t-7 24z" />
<glyph unicode="(" horiz-adv-x="520" d="M37 491.5q0 135.5 28.5 264.5t81 248.5t125 233.5t160.5 218h88q-70 -88 -124 -211t-91 -256t-56.5 -264t-19.5 -233.5t19.5 -233.5t56.5 -264t91.5 -256t123.5 -211h-88q-88 104 -160.5 218t-125 233.5t-81 248.5t-28.5 264.5z" />
<glyph unicode=")" horiz-adv-x="520" d="M0 -473q70 88 124 211t91 256t56.5 264t19.5 233.5t-19.5 233.5t-56.5 264t-91 256t-124 211h88q88 -104 161 -218t125 -233.5t80.5 -248.5t28.5 -264.5t-28.5 -264.5t-80.5 -248.5t-125 -233.5t-161 -218h-88z" />
<glyph unicode="*" horiz-adv-x="692" d="M41 1008q0 45 14.5 61t53.5 16q18 0 25 -8l14.5 -17t22.5 -16.5t50 -7.5t55 11q0 20 -18 55q-20 39 -45 47q-12 4 -22.5 6t-18.5 6q-10 6 -18.5 21.5t-8.5 31.5q0 12 10.5 25.5t25 25t31.5 18.5t32 7q12 0 34.5 -15t22.5 -44q0 -10 -6 -19.5t-6 -25.5q0 -8 5 -22.5 t13 -29t18.5 -27.5t20.5 -20q10 6 20.5 19.5t17.5 28t12 29t5 22.5q0 16 -5 25.5t-5 19.5q0 29 22.5 44t32.5 15q14 0 33 -8t33 -19.5t24.5 -24.5t10.5 -21q0 -16 -8.5 -34t-18.5 -24q-10 -4 -21.5 -4t-25.5 -8q-20 -12 -39 -45q-10 -18 -14 -31.5t-6 -23.5q10 -4 23.5 -7.5 t33.5 -3.5q35 0 50.5 7.5t22.5 16.5t14 17t26 8q39 0 53 -16t14 -61t-14 -61.5t-53 -16.5q-18 0 -25.5 7t-14.5 16.5t-22.5 17.5t-50.5 8q-20 0 -33.5 -3t-23.5 -7q0 -23 20 -56q12 -20 19.5 -29.5t19.5 -15.5q14 -6 24.5 -6t20.5 -6t19.5 -20.5t9.5 -36.5q0 -8 -9.5 -20.5 t-23.5 -25t-32.5 -20.5t-35.5 -8q-10 0 -32.5 15.5t-22.5 43.5q0 10 5 19.5t5 26t-17 50t-38 48.5q-23 -16 -40 -49t-17 -49.5t6 -25.5t6 -20q0 -29 -22.5 -44t-32.5 -15q-14 0 -31.5 7t-33 18.5t-26 24.5t-10.5 24q0 20 8.5 34.5t16.5 20.5q10 10 22.5 8t28.5 8 q20 14 37 43q18 33 18 56q-20 10 -55 10t-50 -8t-22.5 -17.5t-14.5 -16.5t-25 -7q-39 0 -53.5 16.5t-14.5 61.5z" />
<glyph unicode="+" d="M41 530v91h381v378h100v-378h379v-91h-379v-380h-100v380h-381z" />
<glyph unicode="," horiz-adv-x="512" d="M123 -305q25 23 49.5 52.5t45 62t33.5 63.5t13 57q0 35 -21.5 47.5t-52.5 12.5q-41 0 -53 30.5t-12 57.5q0 43 36 75.5t83 32.5q72 0 107.5 -44t35.5 -126q0 -57 -22.5 -109t-56.5 -96t-73.5 -80t-72.5 -59z" />
<glyph unicode="-" horiz-adv-x="509" d="M45 387v113h422v-113h-422z" />
<glyph unicode="." horiz-adv-x="512" d="M123 96.5q0 53.5 38 86t95 32.5t95 -31.5t38 -87.5q0 -53 -38 -84.5t-95 -31.5t-95 31.5t-38 85z" />
<glyph unicode="/" horiz-adv-x="505" d="M-10 12l448 1288l78 -18l-446 -1292z" />
<glyph unicode="0" horiz-adv-x="946" d="M61 547q0 287 106.5 428t305.5 141q201 0 306.5 -143.5t105.5 -425.5q0 -281 -103.5 -423t-308.5 -142q-207 0 -309.5 145.5t-102.5 419.5zM242 549q0 -152 12 -251t40 -157.5t72 -82t107.5 -23.5t108.5 24.5t72.5 84t40 158.5t12.5 247q0 152 -12.5 252t-40 159.5 t-72.5 84t-108.5 24.5t-107.5 -26.5t-72 -87t-40 -160t-12 -246.5z" />
<glyph unicode="1" horiz-adv-x="671" d="M125 944q66 20 119 53t92 64q45 37 82 76h31v-1055q0 -37 30 -37l99 2v-47h-424v47l100 -2q33 0 33 37v827q0 16 -9.5 26.5t-23.5 2.5l-113 -55z" />
<glyph unicode="2" d="M106 0q16 76 61.5 147.5t103 141t121 137.5t115.5 135.5t86 135t34 139.5q0 117 -54.5 177t-138.5 60q-66 0 -105.5 -33.5t-39.5 -85.5q0 -27 11 -48t11 -42q0 -35 -26.5 -58.5t-59.5 -23.5q-39 0 -67.5 29t-28.5 82q0 39 18.5 79t57.5 72.5t95 54t134 21.5 q170 0 270.5 -70.5t100.5 -213.5q0 -68 -31 -127.5t-80 -115.5t-112 -110l-125 -110q-63 -55 -122 -114.5t-99 -125.5h344q188 0 188 180h53q-12 -135 -14 -207.5t0 -109.5q-25 4 -62 4h-92h-547z" />
<glyph unicode="3" horiz-adv-x="901" d="M61 190q0 45 26 80t67 35q37 0 63.5 -20.5t26.5 -55.5q0 -16 -4 -28.5t-4 -26.5q0 -61 53 -100t143 -39q45 0 85 21.5t69.5 57.5t47 84t17.5 101q0 117 -89 179.5t-279 80.5v47q57 0 111.5 22.5t97.5 61.5t68.5 91.5t25.5 113.5q0 82 -45 131t-113 49q-86 0 -127 -38 t-41 -99q0 -6 2 -21.5t2 -25.5q0 -35 -28.5 -55.5t-59.5 -20.5q-41 0 -66.5 29.5t-25.5 77.5q0 49 25.5 87t71.5 63.5t109.5 38.5t137.5 13q70 0 131.5 -17t107.5 -48t71.5 -73t25.5 -91q0 -59 -32 -112.5t-84 -94.5t-120.5 -68.5t-142.5 -33.5q217 0 329.5 -72t112.5 -215 q0 -68 -31.5 -126t-86 -100t-126 -66.5t-151.5 -24.5q-186 0 -278.5 57t-92.5 151z" />
<glyph unicode="4" horiz-adv-x="903" d="M27 283v114q25 23 53 56l51 57l414 512q10 12 28 41l37 51h62v-700h137v-131h-137v-201q0 -37 33 -37l77 2v-47h-424v47l119 -2q33 0 33 37v201h-483zM127 414h383v477z" />
<glyph unicode="5" horiz-adv-x="901" d="M86 190q0 53 27.5 82t64.5 29q35 0 60.5 -17.5t25.5 -54.5q0 -29 -8 -42t-8 -29q0 -33 15.5 -56.5t39 -39t53 -22.5t60.5 -7q125 0 171 85t46 228q0 135 -61.5 212t-184.5 77q-59 0 -121.5 -30t-89.5 -73q-2 -2 -4 -2h-8h-21q-6 0 -10 2l39 568h459q66 0 95.5 2t45.5 4 q-25 -51 -45 -125t-29 -133h-53q2 10 3 25.5t1 35.5q0 16 -14 37t-45 21h-363l-30 -351q47 37 117.5 61.5t136.5 24.5q80 0 145.5 -22.5t112.5 -67.5t73.5 -111.5t26.5 -154.5q0 -86 -30.5 -153.5t-85 -114.5t-126 -71.5t-151.5 -24.5q-53 0 -110.5 9t-106.5 31.5t-81 63.5 t-32 104z" />
<glyph unicode="6" horiz-adv-x="880" d="M86 481q0 119 17.5 234.5t65.5 206t130 146.5t211 56q117 0 178.5 -47t61.5 -131q0 -47 -27 -71.5t-66 -24.5t-61.5 17.5t-22.5 52.5q0 16 5.5 34.5t5.5 30.5q0 29 -24.5 56.5t-74.5 27.5q-55 0 -95 -34t-66.5 -91t-41 -135t-18.5 -166q29 43 77 68.5t108 25.5 q166 0 258 -99t92 -280q0 -82 -25.5 -151.5t-73 -119.5t-112 -78.5t-139.5 -28.5q-109 0 -179.5 39.5t-111.5 108.5t-56.5 160t-15.5 193zM260 358q0 -63 11.5 -123.5t34 -107.5t58 -75.5t85.5 -28.5q96 0 135 85t39 250q0 51 -6.5 109.5t-25 109t-53 83t-89.5 32.5 q-66 0 -104 -27.5t-56.5 -73.5t-23.5 -106.5t-5 -126.5z" />
<glyph unicode="7" horiz-adv-x="772" d="M47 795l13.5 81t13.5 91t10 82.5t4 56.5q16 -4 72.5 -5t138.5 -1h508q-84 -88 -152.5 -205t-118 -246t-76 -262t-26.5 -254q0 -29 2 -63l4 -70h-164q-16 72 -16 150q0 184 90 382.5t293 434.5h-344q-90 0 -134 -39t-54 -133h-64z" />
<glyph unicode="8" horiz-adv-x="901" d="M76 258q0 88 70.5 170t177.5 135q-98 59 -152.5 125t-54.5 152q0 68 27.5 121t75.5 89.5t112.5 55t138.5 18.5q68 0 127 -14t102 -45t69 -77t26 -109q0 -37 -21.5 -80t-55.5 -83t-75 -70t-82 -38q111 -55 186.5 -133t75.5 -190q0 -70 -32.5 -125.5t-87 -95t-123 -61 t-138.5 -21.5q-82 0 -149.5 14t-115.5 47t-74.5 85t-26.5 130zM213 258q0 -94 60.5 -159.5t168.5 -65.5q86 0 143.5 49t57.5 135q0 72 -41 137.5t-133 118.5l-96 59q-33 -20 -61.5 -53t-50 -69.5t-35 -76.5t-13.5 -75zM293 899q0 -59 54 -131t171 -131q76 43 110 105.5 t34 140.5q0 92 -48.5 141t-132.5 49q-86 0 -137 -48t-51 -126z" />
<glyph unicode="9" horiz-adv-x="880" d="M82 745q0 82 25.5 152t72.5 120t110.5 78.5t141.5 28.5q109 0 179.5 -40t111.5 -108.5t56.5 -159.5t15.5 -193q0 -119 -17.5 -235t-65.5 -206t-130 -146t-211 -56q-117 0 -178.5 47t-61.5 131q0 47 26.5 71.5t65.5 24.5t61.5 -17.5t22.5 -52.5q0 -16 -5 -34.5t-5 -30.5 q0 -29 24.5 -56.5t73.5 -27.5q55 0 95 33.5t67 91t41 135.5t18 166q-29 -43 -76.5 -68.5t-107.5 -25.5q-166 0 -258 99t-92 279zM258 745q0 -51 6 -109t24.5 -108.5t53.5 -83t90 -32.5q66 0 103.5 27.5t56 73.5t24 106.5t5.5 125.5q0 63 -11.5 124t-34 108t-58.5 75.5 t-85 28.5q-96 0 -135 -85t-39 -251z" />
<glyph unicode=":" horiz-adv-x="512" d="M123 96.5q0 53.5 38 86t95 32.5t95 -31.5t38 -87.5q0 -53 -38 -84.5t-95 -31.5t-95 31.5t-38 85zM123 706.5q0 53.5 38 86t95 32.5t95 -31.5t38 -86.5q0 -53 -38 -85t-95 -32t-95 31.5t-38 85z" />
<glyph unicode=";" horiz-adv-x="512" d="M100 706.5q0 53.5 38 86t95.5 32.5t95.5 -31.5t38 -86.5q0 -53 -38 -85t-95.5 -32t-95.5 31.5t-38 85zM147 -305q25 23 49.5 52.5t45 62t34 63.5t13.5 57q0 35 -21.5 47.5t-52.5 12.5q-41 0 -53 30.5t-12 57.5q0 43 35.5 75.5t82.5 32.5q72 0 108 -44t36 -126 q0 -57 -22.5 -109t-56.5 -96t-74 -80t-73 -59z" />
<glyph unicode="&#x3c;" d="M111 422v49l720 434v-98l-526 -318l-88 -40l88 -43l526 -316v-100z" />
<glyph unicode="=" d="M72 211v88h798v-88h-798zM72 618v89h798v-89h-798z" />
<glyph unicode="&#x3e;" d="M111 -10v98l524 318l88 40l-88 43l-524 316v100l720 -432v-49z" />
<glyph unicode="?" horiz-adv-x="819" d="M74 1241q0 23 27.5 46.5t74.5 42t107.5 30.5t126.5 12q178 0 270 -63.5t92 -182.5q0 -49 -27.5 -92t-68.5 -82t-90 -75.5t-90 -73.5t-69 -76t-28 -80q0 -53 21.5 -91t75.5 -69l-25 -38q-29 6 -66.5 27.5t-72.5 52t-58 65.5q-24 36 -24 68q0 43 24.5 86t62.5 86t82 85 l82 81.5t62.5 77.5t24.5 71q0 86 -43 131t-117 45q-96 0 -146.5 -28.5t-50.5 -82.5q0 -16 -17 -34.5t-36 -18.5q-45 0 -74.5 23.5t-29.5 56.5zM262 90q0 53 39 89t90 36q55 0 96 -29.5t41 -89.5q0 -53 -39.5 -84.5t-89 -31.5t-93.5 27.5t-44 82.5z" />
<glyph unicode="@" horiz-adv-x="1517" d="M53 365q0 166 61.5 319.5t169 273t256 191.5t322.5 72q129 0 238.5 -46.5t190.5 -126t126 -188t45 -233.5q0 -154 -83 -300.5t-230 -252.5q-39 -29 -67.5 -46.5t-52 -28.5t-45 -15t-44.5 -4q-29 0 -39 23.5t-10 70.5q0 45 13.5 128t35.5 181q-59 -113 -110.5 -189.5 t-99.5 -125t-95 -68.5t-94 -20q-90 0 -139.5 66.5t-49.5 182.5q0 106 44 222t120 211.5t175.5 157t207.5 61.5q45 0 70.5 -19.5t46.5 -60.5l10 41l188 35l-47 -201l-42 -201q-19 -96 -31.5 -173t-12.5 -114q0 -35 27 -34q20 0 48 17t57.5 45t57 60.5t46.5 61.5 q82 133 82 287q0 111 -41 208t-114 169.5t-171 115.5t-211 43q-211 0 -372.5 -116.5t-249.5 -329.5q-72 -178 -72 -361q0 -133 43 -241.5t124 -186.5t195.5 -121t257.5 -43q92 0 172 14.5t152 46.5t139.5 80t132.5 115l37 -45q-72 -74 -145.5 -125t-152.5 -82.5t-166 -47 t-187 -15.5q-164 0 -296 46t-225 132t-144.5 208t-51.5 276zM535 252q0 -160 102 -160q20 0 54 28.5t73 78t80 113t73.5 133t53 138t20.5 130.5q0 43 -24.5 74.5t-63.5 31.5q-100 0 -184 -90t-137 -235q-47 -129 -47 -242z" />
<glyph unicode="A" horiz-adv-x="1230" d="M-41 59l53 -4h8q41 0 68 39q32 43 62 119l428 1030h53l432 -1034q31 -76 59 -117q27 -37 72 -37h10l68 4v-59h-543v59l100 -4q31 -2 45.5 9.5t16.5 30t-4 42t-17 47.5l-100 242h-475l-96 -229q-12 -29 -20.5 -54.5t-8.5 -46t10 -33t35 -10.5l98 6v-59h-354v59zM315 483 h435l-220 516z" />
<glyph unicode="B" horiz-adv-x="1173" d="M102 59l103 -4q37 0 37 45v1024q0 14 -9.5 27.5t-25.5 13.5l-105 -4v62h568q172 0 263 -74t91 -219q0 -109 -78 -183.5t-205 -97.5q74 0 137.5 -23.5t110.5 -66.5t75 -101.5t28 -125.5q0 -332 -453 -332h-537v59zM432 84q0 -27 29 -27h143q129 0 209 73t80 202 q0 141 -63.5 210.5t-186.5 69.5h-211v-528zM432 670h156q242 0 241 258q0 111 -66.5 174t-187.5 63h-118q-23 0 -25 -24v-471z" />
<glyph unicode="C" horiz-adv-x="1243" d="M92 604q0 152 42 270.5t121 200.5t192.5 125t259.5 43q43 0 73.5 -2t64.5 -9t78 -22.5t113 -42.5q18 -6 47 -9t50 -3q-6 -57 -7.5 -96t-1.5 -74q2 -10 2 -27v-28q0 -16 2.5 -28.5t4.5 -14.5h-50q-14 63 -50 118.5t-88 96.5t-115.5 65.5t-133.5 24.5q-92 0 -165.5 -42 t-124 -120t-78 -186.5t-27.5 -239.5q0 -127 28.5 -231.5t82 -179t128 -116.5t167.5 -42q72 0 136 23.5t115.5 64.5t86 97t49.5 122h57q-2 -18 -4 -43l-4 -49q-2 -25 -3 -47.5t-1 -34.5q0 -59 6 -96h-12q-33 0 -69 -9.5t-73 -21.5l-76 -25q-39 -12 -75 -20q-41 -8 -77 -12 t-67 -4q-139 0 -251.5 43t-190.5 123.5t-120 196.5t-42 261z" />
<glyph unicode="D" horiz-adv-x="1275" d="M102 0v59l88 -4q16 0 23.5 13.5t7.5 31.5v1022q0 16 -9 29.5t-30 13.5l-80 -4v62h461q160 0 281 -33t200.5 -105.5t119.5 -189.5t40 -283q0 -299 -150.5 -455.5t-465.5 -156.5h-486zM412 84q0 -27 24 -27h92q127 0 216.5 30t144.5 95.5t80.5 171t25.5 256.5 q0 150 -25.5 256.5t-80.5 172t-144.5 96t-216.5 30.5h-92q-25 0 -24 -26v-1055z" />
<glyph unicode="E" horiz-adv-x="1153" d="M102 61l82 -6q37 0 37 45v1022q0 18 -11 31.5t-30 11.5l-78 -4v62h822h43q25 0 34 2v-318h-55q0 137 -69.5 197.5t-221.5 60.5h-219q-25 0 -24 -28v-471h192q68 0 112 54t44 152h55v-473h-55q0 92 -46 150.5t-110 58.5h-192v-524q0 -27 24 -27h287q139 0 212 80t73 230 h55v-373q-47 6 -180 6h-781v61z" />
<glyph unicode="F" horiz-adv-x="1083" d="M102 0v61l82 -6q37 0 37 45v1022q0 43 -35 43h-4l-80 -4v62h848h41q20 0 31 2v-318h-55q0 135 -70 196.5t-221 61.5h-240q-25 0 -24 -26v-494h153q72 0 117 55.5t45 153.5h55v-471h-55q0 94 -45 149.5t-117 55.5h-153v-490q0 -18 11 -30.5t28 -12.5l106 6v-61h-455z" />
<glyph unicode="G" horiz-adv-x="1323" d="M92 604q0 319 161 479t454 160q84 0 160.5 -17.5t168.5 -58.5q18 -8 40 -10t57 -2q-8 -47 -9 -141v-43q0 -14 2 -27v-24q2 -12 7 -33h-82q2 16 2 31q0 61 -21 106q-25 57 -72 95t-114.5 55.5t-149.5 17.5q-86 0 -157.5 -36t-125 -108.5t-83 -183t-29.5 -260t27.5 -257 t80 -177.5t128 -102.5t170.5 -32.5q90 0 147 19.5t115 74.5v328q0 45 -39 45l-121 -4v59h473v-59l-84 4q-18 0 -28.5 -13.5t-10.5 -29.5v-387q-14 2 -29 2l-40 -4q-35 -6 -64 -17l-108 -39q-43 -14 -76 -22t-66 -10t-80 -2q-283 0 -443.5 155.5t-160.5 468.5z" />
<glyph unicode="H" horiz-adv-x="1425" d="M102 0v59l80 -4q39 0 39 45v1022q0 16 -8 30.5t-31 12.5l-80 -4v62h451v-62l-100 4q-20 2 -30.5 -11t-10.5 -32v-463h602v463q0 16 -8.5 30.5t-30.5 12.5l-101 -4v62h449v-62l-80 4q-20 2 -29.5 -11t-9.5 -32v-1022q0 -45 39 -45l80 4v-59h-449v59l101 -4q39 0 39 45v502 h-602v-502q0 -45 41 -45l100 4v-59h-451z" />
<glyph unicode="I" horiz-adv-x="634" d="M102 0v59l80 -4q39 0 39 45v1022q0 16 -9 30.5t-30 12.5l-80 -4v62h430v-62l-79 4q-18 2 -29.5 -11t-11.5 -32v-1022q0 -45 41 -45l79 4v-59h-430z" />
<glyph unicode="J" horiz-adv-x="923" d="M49 352h74q0 -45 10 -100t33.5 -104.5t64.5 -82t107 -32.5q98 0 141 74.5t43 259.5v755q0 18 -11 31.5t-28 11.5l-141 -4v62h489v-62l-77 4q-20 2 -30.5 -11t-10.5 -30v-757q0 -197 -87 -292t-255 -95q-86 0 -146.5 15t-103.5 15q-16 0 -39 -1t-33 -11v354z" />
<glyph unicode="K" horiz-adv-x="1263" d="M102 59l80 -4q39 0 39 45v1022q0 18 -9 31.5t-30 11.5l-80 -4v62h451v-62l-100 4q-41 0 -41 -45v-551l440 523l22 30q12 16 13 25q0 18 -21 18l-86 -4v62h365v-62l-70 4q-31 2 -57.5 -9t-61.5 -50l-315 -354l492 -668q20 -29 49 -29h6l63 6v-61h-485v61l104 -6 q27 -2 38.5 10.5t-7.5 40.5l-375 508l-114 -135v-379q0 -45 41 -45l100 4v-59h-451v59z" />
<glyph unicode="L" horiz-adv-x="1052" d="M102 0v61l88 -6q16 0 23.5 13.5t7.5 31.5v1022q0 16 -11 30.5t-28 12.5l-80 -4v62h451v-62l-100 4q-18 2 -29.5 -11t-11.5 -32v-1038q0 -27 24 -27h232q141 0 213.5 75t72.5 218h54v-356q-37 6 -254 6h-652z" />
<glyph unicode="M" horiz-adv-x="1757" d="M92 0v59l80 -4q41 0 41 45v1022v31q0 14 -20 12l-87 -4v62h316l477 -994l447 994h299v-62l-70 4q-18 2 -29.5 -11t-11.5 -30v-1024q0 -45 41 -45l80 4v-59h-451v59l101 -4q41 0 41 45v965l-488 -1085h-49l-526 1097v-977q0 -45 39 -45l100 4v-59h-330z" />
<glyph unicode="N" horiz-adv-x="1355" d="M92 0v59l80 -4q41 0 41 45v1022q0 16 -10 30.5t-31 12.5l-80 -4v62h318l665 -908v809q0 41 -35 41h-6l-100 -4v62h330v-62l-80 4h-4q-35 0 -35 -43v-1134h-62l-800 1087v-975q0 -45 39 -45l100 4v-59h-330z" />
<glyph unicode="O" horiz-adv-x="1372" d="M92 612.5q0 153.5 38 265t97 177.5q55 61 112.5 98t116 57.5t117 26.5t113.5 6t112.5 -6t116 -26.5t117 -57.5t113.5 -98q59 -66 97 -177.5t38 -265t-38 -265t-97 -177.5q-55 -61 -113.5 -99t-117 -57.5t-116 -26.5t-112.5 -7t-113.5 7t-117 26.5t-115.5 57.5t-113 99 q-59 66 -97 177.5t-38 265zM301 612.5q0 -155.5 23.5 -265t70.5 -179.5t120 -101.5t171 -31.5t171 31.5t120 101.5t70.5 179.5t23.5 265t-23.5 264t-70.5 178t-120 101.5t-171 32t-171 -32t-120 -101.5t-70.5 -178t-23.5 -264z" />
<glyph unicode="P" horiz-adv-x="1071" d="M102 0v59l80 -4q39 0 39 45v1020q0 23 -9 35t-38 10l-72 -4v62h482q215 0 315 -82t100 -248q0 -160 -99 -257t-273 -97h-215v-439q0 -45 41 -45l100 4v-59h-451zM412 596h172q47 0 87 22.5t69.5 61.5t46 93t16.5 120q0 121 -67.5 196.5t-184.5 75.5h-115q-8 0 -16 -7 t-8 -17v-545z" />
<glyph unicode="Q" horiz-adv-x="1372" d="M92 612.5q0 153.5 38 265t97 177.5q55 61 112.5 98t116 57.5t117 26.5t113.5 6t112.5 -6t116 -26.5t117 -57.5t113.5 -98q59 -66 97 -177.5t38 -265t-38 -265t-97 -177.5q-86 -96 -176 -135t-181 -49q0 -70 25 -129.5t70 -103.5t109.5 -68.5t142.5 -24.5l-27 -61 q-115 0 -211 28.5t-165.5 79.5t-109.5 122t-40 157q-90 10 -179.5 49t-175.5 135q-59 66 -97 177.5t-38 265zM301 612.5q0 -155.5 23.5 -265t70.5 -179.5t120 -101.5t171 -31.5t171 31.5t120 101.5t70.5 179.5t23.5 265t-23.5 264t-70.5 178t-120 101.5t-171 32t-171 -32 t-120 -101.5t-70.5 -178t-23.5 -264z" />
<glyph unicode="R" horiz-adv-x="1189" d="M102 0v59l80 -4q39 0 39 45v1022q0 16 -10 30.5t-35 12.5l-74 -4v62h461q227 0 329.5 -77t102.5 -249q0 -106 -69.5 -183t-180.5 -106q45 0 94.5 -23.5t90.5 -68.5t67.5 -112.5t26.5 -153.5q0 -27 3 -58.5t11.5 -60.5t18.5 -50.5t26 -23.5q12 -4 34 -4t34 8v-61h-279 q-12 25 -19 59.5t-9 75.5q-4 41 -4 78v68q0 82 -30 140t-78 95t-109.5 53.5t-124.5 16.5h-86v-486q0 -45 41 -45l100 4v-59h-451zM412 641h190q92 0 146.5 66.5t54.5 189.5q0 141 -58.5 204.5t-181.5 63.5h-127q-25 0 -24 -20v-504z" />
<glyph unicode="S" horiz-adv-x="1011" d="M98 416h51q23 -186 116 -282.5t261 -96.5q102 0 163 67.5t63 178.5q0 82 -56.5 142t-146.5 95l-209 84q-111 45 -168 121t-57 178q0 68 23.5 129.5t71.5 108.5t118.5 74.5t165.5 27.5q57 0 104 -10q45 -12 86 -25l74 -24q33 -12 55 -13q16 0 31.5 2.5t27.5 6.5 q-6 -49 -6 -154q0 -61 2 -88t11 -49h-54q0 68 -23.5 123t-64.5 94t-97 60.5t-120 21.5q-104 0 -170.5 -57.5t-66.5 -163.5q0 -70 47 -123t129 -86l188 -76q156 -63 222.5 -140t66.5 -198q0 -82 -32 -148.5t-84 -114.5t-121.5 -74.5t-149.5 -26.5q-57 0 -105.5 5t-105.5 21 q-59 16 -96 23.5t-66 7.5q-12 0 -39.5 -4t-30.5 -6q4 25 6.5 67.5t2.5 102.5q0 76 -4.5 135t-12.5 84z" />
<glyph unicode="T" horiz-adv-x="1083" d="M31 907v320q23 -4 82 -4h159h541h158q70 0 82 4v-320h-54q0 131 -57 194.5t-194 63.5h-86q-20 0 -25 -22v-1043q0 -45 41 -45l108 4v-59h-489v59l111 -4q18 0 28 15.5t10 35.5v1035q0 25 -24 24h-84q-137 0 -195.5 -63.5t-58.5 -194.5h-53z" />
<glyph unicode="U" horiz-adv-x="1333" d="M72 1223h448v-62l-100 4q-18 2 -29.5 -10t-11.5 -31v-716q0 -172 95 -268.5t267 -96.5q76 0 139.5 27.5t109.5 76t73 115t27 144.5v716q0 20 -10.5 32.5t-26.5 10.5l-101 -4v62h330v-62l-80 4q-18 2 -29.5 -10t-11.5 -31v-737q0 -88 -33.5 -162.5t-95 -129t-145.5 -85 t-182 -30.5q-248 0 -382.5 108.5t-134.5 319.5v714q0 16 -11 30.5t-27 12.5l-78 -4v62z" />
<glyph unicode="V" horiz-adv-x="1196" d="M-10 1161v62h440v-62l-108 4q-14 0 -19.5 -16t0.5 -33l371 -852l356 830l8 24q4 12 5 23.5t-4 17.5t-19 6l-105 -4v62h322v-62l-74 4q-16 2 -24.5 -10t-18.5 -37l-487 -1126h-53l-486 1126q-20 47 -47 47z" />
<glyph unicode="W" horiz-adv-x="1810" d="M-10 1223h442v-62l-108 4q-27 4 -27 -22q0 -4 6 -23l305 -803l258 799q4 12 4 21q0 29 -39 28h-8l-75 -4v62h426v-62l-87 4q-16 4 -20 -14t0 -31l336 -831l264 835q6 16 0 29.5t-22 11.5l-107 -4v62h313v-62l-61 4q-20 2 -33.5 -13t-17.5 -30l-371 -1142h-33l-422 1064 l-348 -1064h-39l-432 1140q-14 45 -43 45h-4l-57 -4v62z" />
<glyph unicode="X" horiz-adv-x="1159" d="M61 0v61l68 -4h6q43 0 70 45l315 504l-309 520q-12 23 -30.5 31t-35.5 8l-65 -4v62h467v-62l-86 4q-27 2 -33 -13t4 -30l223 -383l244 385q10 16 8 29.5t-24 11.5l-88 -4v62h311v-62l-57 4h-7q-37 0 -63 -41l-283 -452l346 -582q8 -14 23.5 -25.5t38.5 -9.5l80 6v-61 h-482v61l101 -6q23 -2 24.5 14.5t-10.5 32.5l-258 437l-276 -443q-10 -18 -5 -30.5t17 -10.5l92 6v-61h-326z" />
<glyph unicode="Y" horiz-adv-x="1038" d="M-10 1223h452v-62l-108 4q-23 2 -24 -15t9 -34l281 -467l268 475q6 12 5 26.5t-19 14.5l-106 -4v62h311v-62l-60 4h-2q-33 0 -57 -43l-299 -532v-492q0 -18 9 -30.5t32 -12.5l98 4v-59h-469v59l101 -4q39 0 39 45v439l-355 587q-20 39 -49 39h-2l-55 -4v62z" />
<glyph unicode="Z" horiz-adv-x="1048" d="M70 0v55l655 1110h-309q-145 0 -217 -62.5t-72 -195.5h-55v322h24q23 0 60 -4h73q37 0 66 -2h655v-49l-661 -1119h356q139 0 223 76t84 211h56l-17 -350q-27 8 -231 8h-690z" />
<glyph unicode="[" horiz-adv-x="524" d="M94 -301v1683h363v-55h-213v-1573h213v-55h-363z" />
<glyph unicode="\" horiz-adv-x="507" d="M-16 1282l79 18l449 -1288l-82 -22z" />
<glyph unicode="]" horiz-adv-x="524" d="M70 -246h215v1573h-215v55h360v-1683h-360v55z" />
<glyph unicode="^" d="M37 657l412 689h47l409 -689h-96l-297 502l-41 86l-39 -86l-301 -502h-94z" />
<glyph unicode="_" horiz-adv-x="1009" d="M0 -293h1010v-82h-1010v82z" />
<glyph unicode="`" horiz-adv-x="1058" d="M375 1284q0 6 11 15.5t28.5 17.5t38 14t39.5 6q23 0 35 -11t38 -40l195 -213q12 -14 24.5 -26.5t12.5 -20.5q0 -16 -27 -16q-10 0 -23.5 7t-17.5 11l-334 229q-6 4 -13 10.5t-7 16.5z" />
<glyph unicode="a" horiz-adv-x="921" d="M55 215q0 162 130 237.5t417 75.5v119q0 94 -44 136t-136 42q-90 0 -122 -25.5t-32 -64.5q0 -27 10.5 -38t10.5 -39.5t-28 -46t-71 -17.5q-45 0 -67.5 26.5t-22.5 73.5q0 80 77 133.5t245 53.5q176 0 266 -69t90 -220v-504q0 -39 27 -39l76 4v-53h-291q6 37 8 76l4 80 q-45 -88 -115.5 -127t-160.5 -39q-271 0 -271 225zM242 229q0 -78 36.5 -122t102.5 -44q45 0 86 21.5t70.5 59.5t47 91.5t17.5 118.5v119q-199 0 -279.5 -57.5t-80.5 -186.5z" />
<glyph unicode="b" horiz-adv-x="1015" d="M43 1444v51h279v-795q35 84 100 132.5t168 48.5q180 0 267 -115t87 -338t-95 -335.5t-294 -112.5q-57 0 -96 11t-68 28.5t-48 40l-38 46.5q-10 18 -37 19q-29 0 -43 -38t-14 -97h-68v1417q0 41 -26 41zM326 377q0 -76 11 -138.5t37.5 -107.5t70.5 -70.5t110 -25.5 q57 0 97 19.5t62.5 65.5t33 120.5t10.5 187.5q0 115 -8.5 191.5t-30 122.5t-58 64.5t-94.5 18.5q-117 0 -179 -99t-62 -263v-86z" />
<glyph unicode="c" horiz-adv-x="870" d="M74 428q0 102 28.5 185t82 142.5t127 92.5t163.5 33q66 0 123 -16.5t100 -44t69 -66.5t26 -84t-27 -73t-61 -28q-82 0 -82 58q0 16 3 26.5t6 19.5t6 20.5t3 29.5q0 51 -50 76.5t-116 25.5q-111 0 -161 -94t-50 -309q0 -190 59.5 -288.5t178.5 -98.5q47 0 91 16.5t82 46 t65.5 69.5t39.5 87l51 -35q-35 -115 -121.5 -177t-220.5 -62q-197 0 -306 116.5t-109 331.5z" />
<glyph unicode="d" horiz-adv-x="1015" d="M72 428q0 223 97 338t290 115q98 0 156.5 -49.5t78.5 -118.5v694q0 16 -6 28.5t-20 12.5l-95 -4v51h299v-1407q0 -39 27 -39l76 4v-53h-295q4 12 4 33v45q0 20 2 37.5t2 21.5q-23 -72 -76 -114.5t-151 -42.5q-215 0 -302 112.5t-87 335.5zM260 428q0 -109 9.5 -184.5 t32 -121.5t61 -66.5t98.5 -20.5q127 0 178 84t51 258v86q0 166 -55 264t-176 98q-59 0 -97 -28.5t-60.5 -80.5t-32 -126t-9.5 -162z" />
<glyph unicode="e" horiz-adv-x="919" d="M72 428q0 223 104.5 338t306.5 115q162 0 261.5 -102.5t103.5 -284.5v-60h-590q0 -186 64.5 -285.5t193.5 -101.5q55 0 100.5 15.5t79 41t58 57.5t39.5 64l47 -35q-20 -49 -56 -89t-83.5 -66.5t-102.5 -40.5t-111 -14q-217 0 -316 115.5t-99 332.5zM260 485h373 q18 0 29.5 13.5t11.5 54.5q0 137 -43 204.5t-148 67.5q-61 0 -104 -27.5t-68.5 -73.5t-38 -107.5t-12.5 -131.5z" />
<glyph unicode="f" horiz-adv-x="606" d="M72 53l96 -4q14 0 10 9.5t-4 29.5v721h-80v51h80v135q0 104 10.5 192.5t32.5 141.5q39 90 113.5 134t173.5 44h28q92 0 156 -34q72 -41 72 -127q0 -39 -26.5 -53.5t-55.5 -14.5q-23 0 -48.5 13.5t-25.5 39.5q0 31 7 42t7 26q0 23 -21.5 40t-80.5 17q-31 0 -63.5 -10 t-58 -37t-42 -72t-16.5 -114q0 -82 6 -158t6 -145v-60h219v-51h-217v-721q0 -39 27 -39l135 4v-53h-440v53z" />
<glyph unicode="g" d="M66 -229q0 86 48 142t136 97q-31 8 -59.5 18.5t-50 27t-35 44t-13.5 68.5q0 31 20.5 52.5t47 38.5t53.5 32.5t39 34.5q-61 29 -98 96t-37 151q0 68 25.5 125.5t71.5 97.5t110.5 62.5t140.5 22.5q51 0 84 -6.5t72 -18.5q27 35 60.5 66.5t66 56.5t62.5 40t52 15 q29 0 47.5 -9t28.5 -22.5t14 -29t4 -29.5q0 -25 -17 -50.5t-48 -25.5q-25 0 -37 7.5t-19.5 16.5t-14.5 16t-21 7q-8 0 -24.5 -5t-36 -15t-40 -24.5t-34.5 -32.5q78 -33 114.5 -99.5t36.5 -165.5q0 -68 -24.5 -124t-70.5 -96t-110.5 -62.5t-144.5 -22.5q-37 0 -82 9.5 t-72 19.5q-35 -18 -57.5 -39.5t-22.5 -48.5q0 -76 119 -76h273q145 0 225 -63.5t80 -221.5q0 -80 -35 -144t-98.5 -110.5t-153.5 -71t-201 -24.5q-180 0 -277 70t-97 203zM166 -225q0 -96 66.5 -160t205.5 -64q174 0 264.5 79t90.5 204q0 84 -48.5 125t-152.5 41h-182 q-41 0 -84 -18.5t-79 -49t-58.5 -71.5t-22.5 -86zM299 573q0 -74 7 -123t26.5 -78.5t51.5 -43t81 -13.5q98 0 133 60.5t35 197.5q0 135 -36 193.5t-132 58.5q-47 0 -79 -12t-51.5 -42t-27.5 -78t-8 -120z" />
<glyph unicode="h" horiz-adv-x="1075" d="M72 53l75 -4q27 6 27 39v1317q0 43 -27 43l-75 -4v51h278v-817q41 94 121 148.5t186 54.5q145 0 210 -69t65 -222v-502q0 -39 26 -39l76 4v-53h-399v53l94 -4q27 6 27 39v465q0 66 -4 115t-17.5 81.5t-41 49t-75.5 16.5q-123 0 -195.5 -106.5t-72.5 -282.5v-338 q0 -39 27 -39l94 4v-53h-399v53z" />
<glyph unicode="i" horiz-adv-x="522" d="M72 0v53l75 -4q27 0 27 39v682q0 35 -24 41l-76 -4v53h276v-772q0 -39 27 -39l74 4v-53h-379zM137 1296q0 45 32 71t79 26q49 0 80.5 -26t31.5 -71q0 -47 -31.5 -72.5t-80.5 -25.5q-47 0 -79 25.5t-32 72.5z" />
<glyph unicode="j" horiz-adv-x="514" d="M-119 -434q0 45 14.5 66.5t36.5 21.5q20 0 33 -14l27 -33q14 -18 31.5 -33.5t46.5 -15.5q109 0 108 170q0 4 -1 20t-1 39t-1 47.5t-1 44.5v891q0 16 -6 28.5t-21 12.5l-84 -4v53h287v-868q0 -254 -74.5 -372t-218.5 -118q-102 0 -139 12.5t-37 51.5zM141 1296q0 45 31 71 t80 26q47 0 80 -26t33 -71q0 -47 -33 -72.5t-80 -25.5q-49 0 -80 25.5t-31 72.5z" />
<glyph unicode="k" horiz-adv-x="1046" d="M72 0v53l75 -4q27 6 27 39v1317q0 43 -24 43l-76 -4v51h276v-1010l334 287q10 10 11 26.5t-17 14.5l-88 -4v51h332v-51l-74 4q-33 0 -64 -29l-239 -204l358 -494q12 -16 27.5 -26.5t27.5 -10.5l74 4v-53h-440v53l92 -4q18 -2 22.5 8.5t-4.5 20.5l-284 393l-68 -57v-326 q0 -39 27 -39l94 4v-53h-399z" />
<glyph unicode="l" horiz-adv-x="522" d="M72 0v53l75 -4q27 6 27 39v1319q0 33 -24 43l-76 -4v51h276v-1409q0 -39 27 -39l74 4v-53h-379z" />
<glyph unicode="m" horiz-adv-x="1640" d="M72 53l75 -4q27 6 27 39v682q0 16 -7 28.5t-20 12.5l-75 -4v53h290q-10 -27 -10 -69l-2 -119q29 86 104.5 147.5t194.5 61.5q117 0 187.5 -53.5t78.5 -180.5q35 115 118 174.5t190 59.5q145 0 209.5 -69t64.5 -222v-502q0 -39 27 -39l75 4v-53h-399v53l94 -4q27 6 27 39 v465q0 66 -4 115t-17.5 81.5t-41 49t-74.5 16.5q-57 0 -104.5 -27.5t-82 -79t-54 -123t-19.5 -159.5v-338q0 -39 26 -39l97 4v-53h-420v53l94 -4q27 6 27 39v469q0 76 -5.5 125t-21.5 79t-45 41t-74 11q-57 0 -103 -28.5t-79 -80t-51.5 -122t-18.5 -152.5v-342q0 -39 27 -39 l94 4v-53h-399v53z" />
<glyph unicode="n" horiz-adv-x="1075" d="M72 53l75 -4q27 6 27 39v682q0 35 -27 41l-75 -4v53h288q-10 -27 -10 -72v-110q41 94 121 148.5t186 54.5q145 0 210 -69t65 -222v-502q0 -39 26 -39l76 4v-53h-399v53l94 -4q27 6 27 39v465q0 66 -4 115t-17.5 81.5t-41 49t-75.5 16.5q-123 0 -195.5 -106.5 t-72.5 -282.5v-338q0 -39 27 -39l94 4v-53h-399v53z" />
<glyph unicode="o" horiz-adv-x="966" d="M72 432q0 203 102 326t309 123t309.5 -123t102.5 -326q0 -207 -102.5 -329.5t-309.5 -122.5t-309 122.5t-102 329.5zM258 428q0 -205 51 -299t174 -94t174.5 94t51.5 299q0 207 -51.5 302t-174.5 95t-174 -95t-51 -302z" />
<glyph unicode="p" horiz-adv-x="1011" d="M41 807v53h285q-4 -29 -6.5 -56.5t-2.5 -47.5v-60q29 86 98.5 135.5t172.5 49.5q180 0 266 -118t86 -335q0 -223 -94 -335.5t-295 -112.5q-84 0 -144.5 27.5t-89.5 80.5v-487q0 -41 27 -41l127 4v-53h-422v53l66 -4q27 2 26 41v1169q0 41 -26 41zM322 377q0 -184 60 -263 t169 -79q57 0 97 19.5t62.5 64.5t33 120.5t10.5 188.5q0 111 -8.5 186.5t-30 122.5t-57 67.5t-93.5 20.5q-119 0 -181 -101t-62 -261v-86z" />
<glyph unicode="q" horiz-adv-x="1003" d="M72 428q0 223 94 338t293 115q86 0 140 -26t99 -87q4 -6 14.5 -17.5t26.5 -11.5q27 0 45.5 24.5t18.5 96.5h67v-1259q0 -41 27 -39l66 2v-53h-410v53l115 -2q27 2 26 39v526q-20 -57 -80.5 -102t-158.5 -45q-92 0 -163 20t-120 71.5t-74.5 138.5t-25.5 218zM260 428 q0 -129 14.5 -207t40 -119t63.5 -54t87 -13q63 0 106 35.5t70 89t38 113t11 106.5v84q0 55 -9 118.5t-32.5 118t-65.5 90t-110 35.5q-113 0 -163 -90t-50 -307z" />
<glyph unicode="r" horiz-adv-x="784" d="M72 860h288q-4 -12 -8 -40.5t-4 -53.5v-98q47 117 114.5 165t139.5 48q76 0 115 -33t39 -90q0 -94 -80 -94q-25 0 -54.5 10t-29.5 43q0 14 4 24.5t4 26.5q0 12 -11 23.5t-46 11.5q-47 0 -84 -39t-61.5 -96.5t-37 -123t-12.5 -118.5v-338q0 -39 27 -39l125 4v-53h-420v53 l65 -4q27 0 27 39v682q0 41 -27 41l-73 -4v53z" />
<glyph unicode="s" horiz-adv-x="841" d="M90 20l10 271l54 4q0 -57 24.5 -105.5t64.5 -82t94 -53t114 -19.5q82 0 127 42t45 113q0 57 -32 94.5t-112 59.5l-196 55q-80 23 -128.5 81.5t-48.5 146.5q0 111 83 182.5t231 71.5q43 0 77.5 -7.5t63.5 -15.5l57 -14q25 -8 48 -8q12 0 28.5 4t28.5 12l-12 -234h-45 q0 39 -15.5 76t-46.5 65.5t-76 47t-102 18.5q-80 0 -123 -42t-43 -103q0 -100 127 -135l197 -56q109 -31 149.5 -88t40.5 -143q0 -137 -96 -207.5t-244 -70.5q-41 0 -82 8t-78 18l-69 19q-33 8 -55 8q-42 -1 -60 -13z" />
<glyph unicode="t" horiz-adv-x="641" d="M51 809v51q57 0 96 7t67 30t45 63.5t34 108.5h57v-209h225v-51h-225v-629q0 -78 18.5 -105.5t65.5 -27.5q29 0 62.5 23.5t44.5 58.5l43 -27q-20 -55 -71.5 -84.5t-145.5 -29.5q-104 0 -148.5 49t-44.5 160v612h-123z" />
<glyph unicode="u" horiz-adv-x="1073" d="M41 860h276v-557q0 -129 22.5 -192.5t102.5 -63.5q125 0 203 102.5t78 282.5v336q0 43 -25 43l-96 -4v53h299v-772q0 -39 27 -39l73 4v-53h-290q8 18 10 66.5t2 111.5q-41 -98 -125 -148t-199 -50q-137 0 -197.5 75.5t-60.5 247.5v467q0 41 -26 41l-74 -4v53z" />
<glyph unicode="v" horiz-adv-x="909" d="M-27 807v53h416v-53l-90 4q-14 0 -25.5 -12.5t-5.5 -28.5l224 -541l217 549q4 10 2 22.5t-19 10.5l-90 -4v53h289v-53l-68 4q-16 0 -28.5 -7t-18.5 -24l-323 -790h-56l-315 794q-4 10 -15.5 18.5t-25.5 8.5z" />
<glyph unicode="w" horiz-adv-x="1484" d="M-27 807v53h437v-53l-91 4q-23 2 -29.5 -11.5t-0.5 -29.5l192 -545l281 645h43l270 -630l197 536q4 12 2 24.5t-25 10.5l-108 -4v53h325v-53l-84 4q-12 0 -24 -8t-19 -27l-305 -796h-45l-272 636l-285 -636h-41l-289 804q-4 10 -13 18.5t-21 8.5z" />
<glyph unicode="x" horiz-adv-x="995" d="M10 0v53l88 -4q23 0 43 27l258 348l-258 360q-16 27 -39 27l-79 -4v53h440v-53l-94 4q-12 0 -20.5 -7t1.5 -20l176 -249l183 241q8 10 6 22.5t-19 12.5l-88 -4v53h305v-53l-86 4q-10 0 -25.5 -8t-25.5 -23l-215 -293l289 -411q18 -27 39 -27l90 4v-53h-453v53l101 -6 q14 -2 17 9.5t-3 19.5l-207 299l-223 -297q-4 -4 -4 -8q0 -20 26 -21l89 4v-53h-312z" />
<glyph unicode="y" horiz-adv-x="993" d="M-27 807v53h449v-53l-92 4q-14 0 -22.5 -11.5t-2.5 -23.5l250 -553l231 557q4 12 0 21.5t-20 9.5l-96 -4v53h317v-53l-84 4h-4q-33 0 -51 -39l-432 -1042q-49 -121 -104.5 -170t-137.5 -49q-53 0 -92 25.5t-43 74.5q0 53 25.5 78.5t54.5 25.5q31 0 47 -13t27.5 -29.5 l21.5 -30t32.5 -13.5t48.5 21.5t46 73.5l121 278l-357 782q-6 12 -13 19.5t-19 7.5z" />
<glyph unicode="z" horiz-adv-x="903" d="M70 -4v41l510 772h-201q-104 0 -165.5 -62.5t-78.5 -173.5h-43l19 291q4 0 31.5 -1t69.5 -2t95 -1h105h383v-39l-502 -770h215q129 0 196.5 58.5t67.5 175.5h43v-285h-426h-106q-53 0 -96.5 -1t-74 -2t-42.5 -1z" />
<glyph unicode="{" horiz-adv-x="573" d="M61 567q82 12 115 48t33 118v459q0 55 9 92t32.5 58.5t62.5 30.5t99 9h69v-61h-55q-80 0 -80 -115v-473q0 -47 -9 -78.5t-31.5 -52t-60.5 -33t-95 -22.5q57 -12 95 -24.5t60.5 -33t31.5 -51t9 -78.5v-483q0 -53 18.5 -84t61.5 -31h55v-61h-69q-61 0 -100.5 9t-63 30.5 t-31.5 58.5t-8 92v469q0 45 -6 74t-22.5 46.5t-45.5 26.5t-74 19v41z" />
<glyph unicode="|" horiz-adv-x="475" d="M201 -489v1984h73v-1984h-73z" />
<glyph unicode="}" horiz-adv-x="593" d="M92 1321v61h90q59 0 98 -9t63 -30.5t33 -58.5t9 -92v-459q0 -82 33 -117.5t114 -48.5v-41q-45 -10 -73.5 -19t-45 -26.5t-22.5 -46t-6 -74.5v-469q0 -55 -8 -92t-31.5 -58.5t-62.5 -30.5t-101 -9h-90v61h76q43 0 61.5 31t18.5 84v483q0 47 9 78t31.5 51.5t60.5 33 t95 24.5q-57 10 -95 22.5t-60.5 33t-31.5 52t-9 78.5v473q0 115 -80 115h-76z" />
<glyph unicode="~" d="M45 522q88 150 223 150q49 0 100.5 -20.5t101.5 -46t99 -46t97 -20.5q51 0 90 25.5t86 94.5l57 -59q-45 -74 -105.5 -117t-127.5 -43q-49 0 -99.5 20.5t-101.5 46t-100.5 46t-96.5 20.5q-51 0 -86 -20.5t-82 -89.5z" />
<glyph unicode="&#xa1;" horiz-adv-x="550" d="M102 792.5q0 49.5 40 84t91 34.5q53 0 93.5 -34.5t40.5 -81.5q0 -49 -38 -84t-93.5 -35t-94.5 33.5t-39 83zM133 -395q0 51 9.5 133t29.5 192q10 74 17.5 150t12.5 145.5t7 128t2 92.5q0 33 25 33q23 0 22 -33q0 -35 3 -93t7 -127.5t11.5 -145.5t17.5 -150 q20 -111 29.5 -192.5t9.5 -132.5q0 -47 -26.5 -74t-76.5 -27q-47 0 -73.5 27t-26.5 74z" />
<glyph unicode="&#xa2;" horiz-adv-x="806" d="M104 594q0 164 87.5 262t230.5 100v369h76v-375q78 -16 130 -59t52 -103q0 -37 -21.5 -59t-50.5 -22q-70 0 -69 47q0 12 3 20t7 15.5t7 16.5t3 23q0 41 -41 61.5t-92 20.5q-90 0 -128 -74.5t-38 -246.5q0 -309 186 -309q76 0 138.5 49t85.5 125l41 -27q-23 -78 -78 -126 t-135 -62v-435h-76v431q-150 4 -234 97t-84 261z" />
<glyph unicode="&#xa3;" horiz-adv-x="1038" d="M43 -6q88 49 141.5 137t53.5 188v308h-164v47h164v166q0 211 84 307t276 96q55 0 101 -13t81 -38t54.5 -57.5t19.5 -69.5q0 -33 -25.5 -57.5t-58.5 -24.5q-31 0 -57.5 20.5t-26.5 49.5q0 2 2 12t6 22l8 33q0 76 -116 76q-82 0 -134.5 -53t-52.5 -146l13 -92q6 -49 10 -94 l8 -82q2 -35 2 -55h246v-47h-244v-164q0 -41 -15.5 -89t-40 -93t-54 -80t-58.5 -52h365q80 0 132 9.5t83 32t42 59.5t11 94h51l-20 -350q-27 0 -66 2t-94 4h-524q-25 0 -57.5 -1l-62.5 -2t-53.5 -2t-29.5 -1z" />
<glyph unicode="&#xa4;" horiz-adv-x="907" d="M86 219l100 100q-80 96 -79 224q0 63 20 118.5t57 102.5l-96 96l47 47l96 -96q47 37 103.5 58.5t120.5 21.5q66 0 122 -21.5t103 -60.5l96 96l47 -47l-98 -96q37 -47 58.5 -102.5t21.5 -116.5q0 -66 -22.5 -122t-59.5 -104l98 -100l-47 -47l-98 100q-47 -37 -102.5 -57 t-119 -20t-119.5 21.5t-102 57.5l-100 -100zM170 543q0 -59 22.5 -111.5t61.5 -90.5t90 -60.5t110.5 -22.5t112 22.5t90 60.5t60 90t22.5 112q0 57 -22.5 109.5t-60 90t-90 60t-112 22.5t-110.5 -22.5t-90 -60t-61.5 -90t-22.5 -109.5z" />
<glyph unicode="&#xa5;" horiz-adv-x="1038" d="M-10 1161v62h452v-62l-108 4q-23 2 -24 -15t9 -34l281 -467l268 475q6 12 5 26.5t-19 14.5l-106 -4v62h311v-62l-60 4q-33 2 -59 -43l-238 -424h209v-59h-243l-27 -49v-117h270v-59h-270v-316q0 -18 9 -30.5t32 -12.5l98 4v-59h-469v59l101 -4q39 0 39 45v314h-271v59 h271v66l-62 100h-209v59h174l-258 428q-20 41 -51 39z" />
<glyph unicode="&#xa6;" horiz-adv-x="475" d="M199 231h77v-704h-77v704zM199 543v700h77v-700h-77z" />
<glyph unicode="&#xa7;" horiz-adv-x="894" d="M72 520q0 84 42 136.5t140 91.5q-39 29 -63.5 54t-39 51t-19.5 55.5t-5 68.5q0 59 25.5 108.5t72.5 84t112.5 54t145.5 19.5q135 0 221.5 -50t86.5 -146q0 -43 -30 -76t-75 -33q-37 0 -62.5 19.5t-25.5 52.5q0 16 20.5 43.5t20.5 64.5q0 14 -15.5 28.5t-41 25t-57 17.5 t-62.5 7q-72 0 -127 -40t-55 -109q0 -31 5 -52.5t18 -39t35.5 -36t59.5 -42.5l254 -175q88 -59 134.5 -125.5t46.5 -132.5q0 -162 -183 -227q68 -51 97.5 -102.5t29.5 -124.5q0 -59 -26.5 -108.5t-74.5 -85.5t-113.5 -56.5t-141.5 -20.5q-135 0 -221 52.5t-86 144.5 q0 41 30.5 77t73.5 36q37 0 62.5 -19.5t25.5 -54.5q0 -16 -6 -27.5t-14 -22.5t-14.5 -24.5t-6.5 -34.5q0 -14 14.5 -27.5t39 -24.5t56.5 -17t64 -6q78 0 132.5 41t54.5 106q0 27 -5.5 47.5t-18.5 39t-36.5 37.5t-60.5 46l-254 176q-180 123 -180 256zM205 619q0 -94 90 -154 l307 -211q51 12 71.5 34.5t20.5 67.5q0 88 -82 146l-309 211q-98 -24 -98 -94z" />
<glyph unicode="&#xa8;" horiz-adv-x="915" d="M158 1163q0 43 31.5 72t78.5 29q45 0 78 -29t33 -72q0 -45 -32 -71.5t-79 -26.5t-78.5 26.5t-31.5 71.5zM557 1163q0 43 32 72t79 29q45 0 77.5 -29t32.5 -72q0 -45 -31.5 -71.5t-78.5 -26.5t-79 26.5t-32 71.5z" />
<glyph unicode="&#xa9;" horiz-adv-x="1378" d="M115 561q0 121 46 227.5t125 186.5t185.5 126t227 46t227 -46t186.5 -126t126 -186.5t46 -227.5t-46 -227.5t-126 -185t-186.5 -125t-227 -46.5t-227 46.5t-185.5 125t-125 185t-46 227.5zM180 561.5q0 -108.5 40 -204t109.5 -166t164 -111.5t203 -41t202.5 41t165 111.5 t110.5 166t39.5 204t-39.5 203.5t-110.5 167t-165 112.5t-202.5 40.5t-203 -40.5t-164 -112.5t-109.5 -167t-40 -203.5zM371 569q4 166 92 257.5t246 91.5q23 0 65.5 -3.5t91.5 -25.5q45 -18 62.5 -21.5t27.5 -1.5q-4 -33 -5 -54t-1 -40q0 -12 1 -32.5t1 -22.5h-24 q-16 74 -75.5 123t-141.5 49q-104 0 -164 -91t-60 -241q0 -68 15.5 -125t44 -99t69.5 -65.5t93 -23.5q82 0 142 48t77 120h33q-6 -35 -9.5 -72t-3.5 -41q0 -12 1 -20.5t3 -18.5h-6q-25 0 -54.5 -7t-60 -15.5t-62.5 -15.5t-58 -7q-164 0 -252 94t-88 260z" />
<glyph unicode="&#xaa;" horiz-adv-x="536" d="M0 842q0 98 81 145t259 47v76q0 102 -107 102q-59 0 -71 -14t-12 -55q0 -59 -62 -60q-66 0 -65 66q0 51 52 81t158 30q119 0 174.5 -43t55.5 -138v-301q0 -14 12 -14l62 2v-49h-195l6 96q-45 -113 -176 -113q-172 1 -172 142zM129 852q0 -45 21.5 -66.5t56.5 -21.5 q53 0 93 50t40 122v51q-111 0 -161 -32.5t-50 -102.5z" />
<glyph unicode="&#xab;" horiz-adv-x="935" d="M53 383l305 350h74l-201 -350l201 -350h-74zM395 383l305 350h72l-199 -350l199 -350h-72z" />
<glyph unicode="&#xac;" d="M41 653v84h860v-438h-88v354h-772z" />
<glyph unicode="&#xad;" horiz-adv-x="509" d="M45 387v113h422v-113h-422z" />
<glyph unicode="&#xae;" horiz-adv-x="1378" d="M115 561q0 121 46 227.5t125 186.5t185.5 126t227 46t227 -46t186.5 -126t126 -186.5t46 -227.5t-46 -227.5t-126 -185t-186.5 -125t-227 -46.5t-227 46.5t-185.5 125t-125 185t-46 227.5zM180 561.5q0 -108.5 40 -204t109.5 -166t164 -111.5t203 -41t202.5 41t165 111.5 t110.5 166t39.5 204t-39.5 203.5t-110.5 167t-165 112.5t-202.5 40.5t-203 -40.5t-164 -112.5t-109.5 -167t-40 -203.5zM418 242v30q47 0 64.5 4.5t17.5 47.5v524q0 27 -15.5 38t-66.5 11v37h325q104 0 163 -44t59 -130q0 -70 -49.5 -121t-135.5 -61q49 -6 80 -54l70 -131 q27 -53 42 -78.5t25.5 -35t19.5 -8.5t27 1v-30h-96q-27 0 -43 3t-29.5 19.5t-27.5 50.5l-43 95q-20 47 -34.5 75.5t-33 45t-46 21.5t-77.5 5v-254l11 -20l20 -9h49v-32h-276zM614 596h54q184 0 184 147q0 150 -158 150q-47 0 -63.5 -7t-16.5 -48v-242z" />
<glyph unicode="&#xaf;" horiz-adv-x="915" d="M213 1161v82h489v-82h-489z" />
<glyph unicode="&#xb0;" horiz-adv-x="765" d="M182 1042q0 41 16.5 77t44 63.5t63.5 44t77 16.5t77 -16.5t63.5 -44t44 -63.5t16.5 -77t-16.5 -76.5t-44 -63.5t-63.5 -44t-77 -16t-77 16t-63.5 44t-44 63.5t-16.5 76.5zM266 1042.5q0 -47.5 35 -81t82 -33.5q45 0 80 33.5t35 81t-35 81t-80 33.5q-47 0 -82 -33.5 t-35 -81z" />
<glyph unicode="&#xb1;" d="M41 0v84h860v-84h-860zM41 561v84h383v391h92v-391h385v-84h-385v-397h-92v397h-383z" />
<glyph unicode="&#xb2;" horiz-adv-x="538" d="M59 827q12 63 56.5 116.5t92.5 103t86 98.5t38 104.5t-21.5 85t-54.5 29.5q-25 0 -44 -15.5t-19 -37.5q0 -20 4 -31l8 -14q0 -20 -20.5 -33.5t-45.5 -13.5q-27 0 -47 16t-20 45q0 41 47 80t137 39q94 0 149.5 -37t55.5 -113q0 -57 -31 -98t-74 -78l-94 -76 q-47 -39 -84 -92h150q35 0 54 16.5t19 61.5h68q-4 -59 -5 -91t-1 -50v-19q-25 4 -47 4h-51h-306z" />
<glyph unicode="&#xb3;" horiz-adv-x="540" d="M61 924q0 27 18.5 46t49.5 19q25 0 44.5 -12t19.5 -33q0 -6 -2.5 -12t-2.5 -12q0 -29 21.5 -47.5t58.5 -18.5t62.5 37t25.5 88q0 57 -45 86t-139 39v35q57 0 104.5 40t47.5 99q0 37 -17.5 59.5t-42.5 22.5q-33 0 -48 -16.5t-15 -45.5v-8q0 -4 1 -8t1 -8 q0 -20 -20.5 -31.5t-43.5 -11.5q-29 0 -47 16.5t-18 42.5q0 53 53 80t137 27q82 0 136.5 -31t54.5 -88q0 -59 -45 -96t-111 -56q88 -10 137 -46t49 -101q0 -39 -17 -69.5t-48 -52t-70 -33t-82 -11.5q-104 0 -155.5 31t-51.5 80z" />
<glyph unicode="&#xb4;" horiz-adv-x="714" d="M221 1047q0 8 10 18l218 240q35 41 47 47t28 6q70 -16 93.5 -22.5t23.5 -26.5q0 -16 -12 -25l-361 -248q-6 -6 -20 -6q-27 1 -27 17z" />
<glyph unicode="&#xb5;" horiz-adv-x="1132" d="M16 -498l95 -2q25 4 30 39v1233q0 39 -26 39l-74 -4v53h276v-557q0 -129 22.5 -192.5t102.5 -63.5q125 0 203 102.5t78 282.5v336q0 43 -25 43l-96 -4v53h299v-772q0 -39 27 -39l73 4v-53h-290q8 18 10 66.5t2 111.5q-35 -86 -108.5 -142t-180.5 -56q-29 0 -64.5 11 t-56.5 29v-481q0 -33 29 -39l94 2v-53h-420v53z" />
<glyph unicode="&#xb6;" horiz-adv-x="1021" d="M61 905q0 145 107.5 231.5t298.5 86.5h512v-64h-207v-1710h-72v1710h-84q-35 0 -56 -18.5t-21 -59.5v-1632h-72v1141q-190 0 -298 81.5t-108 233.5z" />
<glyph unicode="&#xb7;" horiz-adv-x="471" d="M102 377q0 53 38 86t95.5 33t95.5 -32t38 -87q0 -53 -38 -85t-95.5 -32t-95.5 32t-38 85z" />
<glyph unicode="&#xb8;" horiz-adv-x="915" d="M268 -406l15 50q25 -27 71.5 -27t80.5 32t34 79q0 27 -21.5 46t-48.5 33l-47 29q-23 14 -22 31q0 14 12 27l84 106h68l-56 -88q-12 -23 -12 -39q0 -18 27.5 -24.5l60.5 -14.5t60.5 -26.5t27.5 -57.5q0 -86 -49 -137t-143 -51q-27 0 -67 4.5t-75 27.5z" />
<glyph unicode="&#xb9;" horiz-adv-x="382" d="M29 864l84 -2q14 0 19 10.5t5 26.5v338q0 14 -9 21.5t-26 1.5l-61 -23l-12 51q41 10 73.5 28.5t55.5 37.5q27 23 49 45h51v-500q0 -14 8 -26.5t23 -10.5l59 2v-37h-319v37z" />
<glyph unicode="&#xba;" horiz-adv-x="718" d="M90 983q0 133 71.5 208t196.5 75q123 0 197 -73t74 -210q0 -131 -71 -204.5t-200 -73.5q-68 0 -119 21.5t-83.5 59t-49 88t-16.5 109.5zM236 983q0 -121 22.5 -175t99.5 -54q33 0 57.5 9t39 34.5t21.5 70.5t7 115q0 131 -25.5 182.5t-99 51.5t-98 -54.5t-24.5 -179.5z " />
<glyph unicode="&#xbb;" horiz-adv-x="935" d="M119 33l198 350l-198 350h74l303 -350l-303 -350h-74zM471 33l199 350l-199 350h74l303 -350l-303 -350h-74z" />
<glyph unicode="&#xbc;" horiz-adv-x="1187" d="M82 -96l952 1335l70 -41l-954 -1341zM111 864l84 -2q14 0 19 10.5t5 26.5v338q0 14 -9 21.5t-26 1.5l-61 -23l-12 51q41 10 73.5 28.5t55.5 37.5q27 23 49 45h51v-500q0 -14 8 -26.5t23 -10.5l59 2v-37h-319v37zM752 82q10 14 47 57l90 111l160 199h65v-353h68v-80h-68 v-67q0 -14 8 -25.5t23 -11.5l37 2v-37h-297v37l84 -2q14 0 19 10t5 27v69h-241v64zM825 96h166v203z" />
<glyph unicode="&#xbd;" horiz-adv-x="1187" d="M82 -96l952 1335l70 -41l-954 -1341zM111 864l84 -2q14 0 19 10.5t5 26.5v338q0 14 -9 21.5t-26 1.5l-61 -23l-12 51q41 10 73.5 28.5t55.5 37.5q27 23 49 45h51v-500q0 -14 8 -26.5t23 -10.5l59 2v-37h-319v37zM778 -123q12 63 56.5 116.5t92.5 102.5t86 98.5t38 104.5 t-21.5 85t-54.5 30q-25 0 -44.5 -15.5t-19.5 -38.5q0 -20 7 -30l6 -15q0 -20 -20.5 -33.5t-45.5 -13.5q-27 0 -47 16.5t-20 45.5q0 41 47 80t137 39q94 0 149.5 -37t55.5 -113q0 -57 -31 -98t-76 -78l-90 -76q-49 -39 -86 -92h150q35 0 54 16.5t19 61.5h68q-4 -59 -5 -91 t-1 -51v-18q-25 4 -47 4h-52h-305z" />
<glyph unicode="&#xbe;" horiz-adv-x="1187" d="M61 924q0 27 18.5 46t49.5 19q25 0 44.5 -12t19.5 -33q0 -6 -2.5 -12t-2.5 -12q0 -29 21.5 -47.5t58.5 -18.5t62.5 37t25.5 88q0 57 -45 86t-139 39v35q57 0 104.5 40t47.5 99q0 37 -17.5 59.5t-42.5 22.5q-33 0 -48 -16.5t-15 -45.5v-8q0 -4 1 -8t1 -8 q0 -20 -20.5 -31.5t-43.5 -11.5q-29 0 -47 16.5t-18 42.5q0 53 53 80t137 27q82 0 136.5 -31t54.5 -88q0 -59 -45 -96t-111 -56q88 -10 137 -46t49 -101q0 -39 -17 -69.5t-48 -52t-70 -33t-82 -11.5q-104 0 -155.5 31t-51.5 80zM82 -96l952 1335l70 -41l-954 -1341zM754 82 q10 14 47 57l88 111l162 199h65v-353h68v-80h-68v-67q0 -14 8.5 -25.5t22.5 -11.5l37 2v-37h-297v37l84 -2q14 0 19 10t5 27v69h-241v64zM827 96h166v203z" />
<glyph unicode="&#xbf;" horiz-adv-x="819" d="M74 -236q0 49 27.5 92.5t68.5 82t90 75.5t90 74t68.5 75t27.5 81q0 53 -21.5 91t-74.5 68l25 39q29 -6 66.5 -27.5t72.5 -52t58.5 -65.5t23.5 -68q0 -41 -24.5 -85t-62.5 -87t-82 -85t-82 -82t-62.5 -77.5t-24.5 -70.5q0 -86 43 -131t117 -45q96 0 146 28.5t50 81.5 q0 16 17.5 35t36.5 19q45 0 74.5 -23.5t29.5 -56.5q0 -23 -27.5 -46.5t-74.5 -42t-107.5 -30.5t-126.5 -12q-178 0 -270 63t-92 182zM317 795q0 53 40 84.5t89.5 31.5t93.5 -27.5t44 -82.5q0 -53 -39 -89t-90 -36q-55 0 -96.5 30t-41.5 89z" />
<glyph unicode="&#xc0;" horiz-adv-x="1230" d="M-41 0v59l53 -4h8q41 0 68 39q31 43 62 119l428 1030h53l432 -1034q31 -76 59 -117q27 -37 72 -37h10l68 4v-59h-543v59l100 -4q31 -2 45.5 9.5t16.5 30t-4 42t-17 47.5l-100 242h-475l-96 -229q-12 -29 -20.5 -54.5t-8.5 -46t10 -33t35 -10.5l98 6v-59h-354zM315 483 h435l-220 516zM403 1647q0 6 11.5 15t29 17.5t38 14.5t38.5 6q23 0 35 -11.5t39 -39.5l194 -213q12 -14 24.5 -26.5t12.5 -20.5q0 -16 -26 -17q-10 0 -23.5 7t-17.5 12l-334 229q-6 4 -13.5 10.5t-7.5 16.5z" />
<glyph unicode="&#xc1;" horiz-adv-x="1230" d="M-41 0v59l53 -4h8q41 0 68 39q31 43 62 119l428 1030h53l432 -1034q31 -76 59 -117q27 -37 72 -37h10l68 4v-59h-543v59l100 -4q31 -2 45.5 9.5t16.5 30t-4 42t-17 47.5l-100 242h-475l-96 -229q-12 -29 -20.5 -54.5t-8.5 -46t10 -33t35 -10.5l98 6v-59h-354zM315 483 h435l-220 516zM406 1409q0 8 10 18l217 240q35 41 47 47t29 6q70 -16 93 -22t23 -27q0 -16 -12 -24l-360 -248q-6 -6 -21 -6q-26 0 -26 16z" />
<glyph unicode="&#xc2;" horiz-adv-x="1230" d="M-41 0v59l53 -4h8q41 0 68 39q31 43 62 119l428 1030h53l432 -1034q31 -76 59 -117q27 -37 72 -37h10l68 4v-59h-543v59l100 -4q31 -2 45.5 9.5t16.5 30t-4 42t-17 47.5l-100 242h-475l-96 -229q-12 -29 -20.5 -54.5t-8.5 -46t10 -33t35 -10.5l98 6v-59h-354zM295 1358 q0 14 49 51t113 102l49 50l49 49q23 23 39 37t20 14t20.5 -14.5l39.5 -36.5l49 -49l49 -50q63 -66 112.5 -102.5t49.5 -50.5q0 -4 -3 -10.5t-16 -6.5q-10 0 -27.5 8.5t-29.5 16.5l-244 152l-243 -152q-12 -8 -29.5 -16.5t-28.5 -8.5q-12 0 -15 6.5t-3 10.5zM315 483h435 l-220 516z" />
<glyph unicode="&#xc3;" horiz-adv-x="1230" d="M-41 0v59l53 -4h8q41 0 68 39q31 43 62 119l428 1030h53l432 -1034q31 -76 59 -117q27 -37 72 -37h10l68 4v-59h-543v59l100 -4q31 -2 45.5 9.5t16.5 30t-4 42t-17 47.5l-100 242h-475l-96 -229q-12 -29 -20.5 -54.5t-8.5 -46t10 -33t35 -10.5l98 6v-59h-354zM315 483 h435l-220 516zM322 1438q0 76 36.5 131t94.5 55q33 0 80 -13.5t96 -30.5t94 -30.5t76 -13.5q29 0 48 24.5t19 61.5h41q0 -76 -36.5 -131t-94.5 -55q-35 0 -81 13t-95 30.5t-94 31t-76 13.5q-29 0 -48.5 -24.5t-19.5 -61.5h-40z" />
<glyph unicode="&#xc4;" horiz-adv-x="1230" d="M-41 0v59l53 -4h8q41 0 68 39q31 43 62 119l428 1030h53l432 -1034q31 -76 59 -117q27 -37 72 -37h10l68 4v-59h-543v59l100 -4q31 -2 45.5 9.5t16.5 30t-4 42t-17 47.5l-100 242h-475l-96 -229q-12 -29 -20.5 -54.5t-8.5 -46t10 -33t35 -10.5l98 6v-59h-354zM305 1526 q0 43 32 71.5t79 28.5q45 0 77.5 -28.5t32.5 -71.5q0 -45 -31.5 -72t-78.5 -27t-79 27t-32 72zM315 483h435l-220 516zM705 1526q0 43 31.5 71.5t78.5 28.5q45 0 78 -28.5t33 -71.5q0 -45 -32 -72t-79 -27t-78.5 27t-31.5 72z" />
<glyph unicode="&#xc5;" horiz-adv-x="1230" d="M-41 0v59l53 -4h8q40 0 68 39q31 43 62 119l428 1030h53l432 -1034q31 -76 59 -117q26 -37 73 -37h9l68 4v-59h-543v59l100 -4q31 -2 45.5 9.5t16.5 30t-4 42t-17 47.5l-100 242h-475l-96 -229q-12 -29 -20.5 -54.5t-8.5 -46t10 -33t35 -10.5l98 6v-59h-354zM315 483h435 l-220 516zM444 1511q0 70 50.5 118t119.5 48q72 0 122 -47t50 -118.5t-50 -120t-121.5 -48.5t-121 48t-49.5 120zM530 1511.5q0 -34.5 25 -64.5t59.5 -30t60 30t25.5 64.5t-25.5 63.5t-60 29t-59.5 -29t-25 -63.5z" />
<glyph unicode="&#xc6;" horiz-adv-x="1804" d="M10 61l64 -6q29 -4 55.5 26t67.5 95l571 936q10 18 -2 33.5t-29 15.5l-104 -4v66h878h74q47 0 70 4v-320h-53q0 135 -72 196.5t-219 61.5h-336l92 -501h170q66 0 111 57t45 151h53v-473h-53q0 92 -45 150.5t-111 58.5h-162l98 -514q4 -16 15.5 -27.5t28.5 -11.5h135 q289 0 288 295h56v-356q-55 4 -106.5 5t-73.5 1h-707v61l117 -6q27 -2 38 15.5t7 35.5l-60 320h-503l-156 -262q-8 -14 -17.5 -33.5t-10.5 -37t7.5 -29t32.5 -9.5l105 6v-61h-359v61zM440 483h459l-106 572z" />
<glyph unicode="&#xc7;" horiz-adv-x="1243" d="M92 604q0 152 42 270.5t121 200.5t192.5 125t259.5 43q43 0 73.5 -2t64.5 -9t78 -22.5t113 -42.5q18 -6 47 -9t50 -3q-6 -57 -7.5 -96t-1.5 -74q2 -10 2 -27v-28q0 -16 2 -28.5t5 -14.5h-50q-14 63 -50 118.5t-88 96.5t-115.5 65.5t-133.5 24.5q-92 0 -165.5 -42 t-124 -120t-78 -186.5t-27.5 -239.5q0 -127 28.5 -231.5t82 -179t128 -116.5t167.5 -42q72 0 136 23.5t115.5 64.5t86 97t49.5 122h57q-2 -18 -4 -43l-4 -49q-2 -25 -3 -47.5t-1 -34.5q0 -59 6 -96h-12q-33 0 -69 -9.5t-73 -21.5l-76 -25q-39 -12 -75 -20q-41 -8 -77 -12 t-67 -4q-139 0 -251.5 43t-190.5 123.5t-120 196.5t-42 261zM514 -406l14 50q25 -27 72 -27t81 32t34 79q0 27 -21.5 46t-48.5 33l-47 29q-23 14 -23 31q0 14 13 27l84 106h67l-55 -88q-12 -23 -12 -39q0 -18 27.5 -24.5l60.5 -14.5t60.5 -26.5t27.5 -57.5q0 -86 -49 -137 t-144 -51q-27 0 -66.5 4.5t-74.5 27.5z" />
<glyph unicode="&#xc8;" horiz-adv-x="1153" d="M102 0v61l82 -6q37 0 37 45v1022q0 18 -11 31.5t-30 11.5l-78 -4v62h822h43q25 0 34 2v-318h-55q0 137 -69.5 197.5t-221.5 60.5h-219q-25 0 -24 -28v-471h192q68 0 112 54t44 152h55v-473h-55q0 92 -46 150.5t-110 58.5h-192v-524q0 -27 24 -27h287q139 0 212 80t73 230 h55v-373q-47 6 -180 6h-781zM373 1647q0 6 11 15t28.5 17.5t38 14.5t38.5 6q23 0 35.5 -11.5t38.5 -39.5l195 -213q12 -14 24.5 -26.5t12.5 -20.5q0 -16 -27 -17q-10 0 -23.5 7t-17.5 12l-334 229q-6 4 -13 10.5t-7 16.5z" />
<glyph unicode="&#xc9;" horiz-adv-x="1153" d="M102 0v61l82 -6q37 0 37 45v1022q0 18 -11 31.5t-30 11.5l-78 -4v62h822h43q25 0 34 2v-318h-55q0 137 -69.5 197.5t-221.5 60.5h-219q-25 0 -24 -28v-471h192q68 0 112 54t44 152h55v-473h-55q0 92 -46 150.5t-110 58.5h-192v-524q0 -27 24 -27h287q139 0 212 80t73 230 h55v-373q-47 6 -180 6h-781zM449 1409q0 8 10 18l217 240q35 41 47 47t29 6q70 -16 93 -22t23 -27q0 -16 -12 -24l-360 -248q-6 -6 -21 -6q-26 0 -26 16z" />
<glyph unicode="&#xca;" horiz-adv-x="1153" d="M102 0v61l82 -6q37 0 37 45v1022q0 18 -11 31.5t-30 11.5l-78 -4v62h822h43q25 0 34 2v-318h-55q0 137 -69.5 197.5t-221.5 60.5h-219q-25 0 -24 -28v-471h192q68 0 112 54t44 152h55v-473h-55q0 92 -46 150.5t-110 58.5h-192v-524q0 -27 24 -27h287q139 0 212 80t73 230 h55v-373q-47 6 -180 6h-781zM256 1358q0 14 49 51t113 102l49 50l49 49q23 23 39 37t20.5 14t20.5 -14.5l39 -36.5l49 -49l49 -50q63 -66 112.5 -102.5t49.5 -50.5q0 -4 -3 -10.5t-15 -6.5q-10 0 -28 8.5t-30 16.5l-244 152l-243 -152q-12 -8 -29.5 -16.5t-28.5 -8.5 q-12 0 -15 6.5t-3 10.5z" />
<glyph unicode="&#xcb;" horiz-adv-x="1153" d="M102 0v61l82 -6q37 0 37 45v1022q0 18 -11 31.5t-30 11.5l-78 -4v62h822h43q25 0 34 2v-318h-55q0 137 -69.5 197.5t-221.5 60.5h-219q-25 0 -24 -28v-471h192q68 0 112 54t44 152h55v-473h-55q0 92 -46 150.5t-110 58.5h-192v-524q0 -27 24 -27h287q139 0 212 80t73 230 h55v-373q-47 6 -180 6h-781zM303 1526q0 43 32 71.5t79 28.5q45 0 77.5 -28.5t32.5 -71.5q0 -45 -31.5 -72t-78.5 -27t-79 27t-32 72zM702 1526q0 43 32 71.5t79 28.5q45 0 78 -28.5t33 -71.5q0 -45 -32 -72t-79 -27t-79 27t-32 72z" />
<glyph unicode="&#xcc;" horiz-adv-x="634" d="M102 0v59l80 -4q39 0 39 45v1022q0 16 -9 30.5t-30 12.5l-80 -4v62h430v-62l-79 4q-18 2 -29.5 -11t-11.5 -32v-1022q0 -45 41 -45l79 4v-59h-430zM113 1647q0 6 11 15t28.5 17.5t38 14.5t38.5 6q23 0 35 -11.5t39 -39.5l195 -213q12 -14 24.5 -26.5t12.5 -20.5 q0 -16 -27 -17q-10 0 -23.5 7t-17.5 12l-334 229q-6 4 -13 10.5t-7 16.5z" />
<glyph unicode="&#xcd;" horiz-adv-x="634" d="M102 0v59l80 -4q39 0 39 45v1022q0 16 -9 30.5t-30 12.5l-80 -4v62h430v-62l-79 4q-18 2 -29.5 -11t-11.5 -32v-1022q0 -45 41 -45l79 4v-59h-430zM176 1409q0 8 10 18l217 240q35 41 47.5 47t28.5 6q70 -16 93.5 -22t23.5 -27q0 -16 -12 -24l-361 -248q-6 -6 -20 -6 q-27 0 -27 16z" />
<glyph unicode="&#xce;" horiz-adv-x="634" d="M4 1358q0 14 49 51t113 102l49 50l49 49q23 23 39 37t20.5 14t20.5 -14.5l39 -36.5l49 -49l49 -50q63 -66 112.5 -102.5t49.5 -50.5q0 -4 -3 -10.5t-15 -6.5q-10 0 -27.5 8.5t-30.5 16.5l-243 152l-244 -152q-12 -8 -29.5 -16.5t-27.5 -8.5q-12 0 -15.5 6.5t-3.5 10.5z M102 0v59l80 -4q39 0 39 45v1022q0 16 -9 30.5t-30 12.5l-80 -4v62h430v-62l-79 4q-18 2 -29.5 -11t-11.5 -32v-1022q0 -45 41 -45l79 4v-59h-430z" />
<glyph unicode="&#xcf;" horiz-adv-x="634" d="M14 1526q0 43 32 71.5t79 28.5q45 0 78 -28.5t33 -71.5q0 -45 -32 -72t-79 -27t-79 27t-32 72zM102 0v59l80 -4q39 0 39 45v1022q0 16 -9 30.5t-30 12.5l-80 -4v62h430v-62l-79 4q-18 2 -29.5 -11t-11.5 -32v-1022q0 -45 41 -45l79 4v-59h-430zM414 1526q0 43 31.5 71.5 t78.5 28.5q45 0 78 -28.5t33 -71.5q0 -45 -32 -72t-79 -27t-78.5 27t-31.5 72z" />
<glyph unicode="&#xd0;" horiz-adv-x="1292" d="M86 600v74h141v448q0 16 -9 29.5t-30 13.5l-79 -4v62h460q160 0 281 -33t200.5 -105.5t119.5 -189.5t40 -283q0 -299 -150.5 -455.5t-465.5 -156.5h-485v59l88 -4q16 0 23 13.5t7 31.5v500h-141zM418 84q0 -27 24 -27h93q127 0 216 30t144 95.5t80.5 171t25.5 256.5 q0 150 -25.5 256.5t-80.5 172t-144 96t-216 30.5h-93q-25 0 -24 -26v-465h383v-74h-383v-516z" />
<glyph unicode="&#xd1;" horiz-adv-x="1355" d="M92 0v59l80 -4q41 0 41 45v1022q0 16 -10 30.5t-31 12.5l-80 -4v62h318l665 -908v809q0 41 -35 41h-6l-100 -4v62h330v-62l-80 4h-4q-35 0 -35 -43v-1134h-62l-800 1087v-975q0 -45 39 -45l100 4v-59h-330zM426 1438q0 76 37 131t94 55q33 0 80 -13.5t96 -30.5t94 -30.5 t76 -13.5q29 0 48.5 24.5t19.5 61.5h41q0 -76 -37 -131t-94 -55q-35 0 -81 13t-95.5 30.5t-94.5 31t-75 13.5q-29 0 -48.5 -24.5t-19.5 -61.5h-41z" />
<glyph unicode="&#xd2;" horiz-adv-x="1372" d="M92 612.5q0 153.5 38 265t97 177.5q55 61 112.5 98t116 57.5t117 26.5t113.5 6t112.5 -6t116 -26.5t117 -57.5t113.5 -98q59 -66 97 -177.5t38 -265t-38 -265t-97 -177.5q-55 -61 -113.5 -99t-117 -57.5t-116 -26.5t-112.5 -7t-113.5 7t-117 26.5t-115.5 57.5t-113 99 q-59 66 -97 177.5t-38 265zM301 612.5q0 -155.5 23.5 -265t70.5 -179.5t120 -101.5t171 -31.5t171 31.5t120 101.5t70.5 179.5t23.5 265t-23.5 264t-70.5 178t-120 101.5t-171 32t-171 -32t-120 -101.5t-70.5 -178t-23.5 -264zM475 1647q0 6 11.5 15t28.5 17.5t37.5 14.5 t39.5 6q23 0 35 -11.5t39 -39.5l194 -213q12 -14 24.5 -26.5t12.5 -20.5q0 -16 -27 -17q-10 0 -23 7t-18 12l-333 229q-6 4 -13.5 10.5t-7.5 16.5z" />
<glyph unicode="&#xd3;" horiz-adv-x="1372" d="M92 612.5q0 153.5 38 265t97 177.5q55 61 112.5 98t116 57.5t117 26.5t113.5 6t112.5 -6t116 -26.5t117 -57.5t113.5 -98q59 -66 97 -177.5t38 -265t-38 -265t-97 -177.5q-55 -61 -113.5 -99t-117 -57.5t-116 -26.5t-112.5 -7t-113.5 7t-117 26.5t-115.5 57.5t-113 99 q-59 66 -97 177.5t-38 265zM301 612.5q0 -155.5 23.5 -265t70.5 -179.5t120 -101.5t171 -31.5t171 31.5t120 101.5t70.5 179.5t23.5 265t-23.5 264t-70.5 178t-120 101.5t-171 32t-171 -32t-120 -101.5t-70.5 -178t-23.5 -264zM496 1409q0 8 10 18l217 240q35 41 47 47t29 6 q70 -16 93 -22t23 -27q0 -16 -12 -24l-360 -248q-6 -6 -21 -6q-26 0 -26 16z" />
<glyph unicode="&#xd4;" horiz-adv-x="1372" d="M92 612.5q0 153.5 38 265t97 177.5q55 61 112.5 98t116 57.5t117 26.5t113.5 6t112.5 -6t116 -26.5t117 -57.5t113.5 -98q59 -66 97 -177.5t38 -265t-38 -265t-97 -177.5q-55 -61 -113.5 -99t-117 -57.5t-116 -26.5t-112.5 -7t-113.5 7t-117 26.5t-115.5 57.5t-113 99 q-59 66 -97 177.5t-38 265zM301 612.5q0 -155.5 23.5 -265t70.5 -179.5t120 -101.5t171 -31.5t171 31.5t120 101.5t70.5 179.5t23.5 265t-23.5 264t-70.5 178t-120 101.5t-171 32t-171 -32t-120 -101.5t-70.5 -178t-23.5 -264zM367 1358q0 14 49 51t112 102l50 50l49 49 q23 23 39 37t20 14t20.5 -14.5t38.5 -36.5l50 -49l49 -50q63 -66 112.5 -102.5t49.5 -50.5q0 -4 -3.5 -10.5t-15.5 -6.5q-10 0 -27.5 8.5t-29.5 16.5l-244 152l-244 -152q-12 -8 -29.5 -16.5t-27.5 -8.5q-12 0 -15 6.5t-3 10.5z" />
<glyph unicode="&#xd5;" horiz-adv-x="1372" d="M92 612.5q0 153.5 38 265t97 177.5q55 61 112.5 98t116 57.5t117 26.5t113.5 6t112.5 -6t116 -26.5t117 -57.5t113.5 -98q59 -66 97 -177.5t38 -265t-38 -265t-97 -177.5q-55 -61 -113.5 -99t-117 -57.5t-116 -26.5t-112.5 -7t-113.5 7t-117 26.5t-115.5 57.5t-113 99 q-59 66 -97 177.5t-38 265zM301 612.5q0 -155.5 23.5 -265t70.5 -179.5t120 -101.5t171 -31.5t171 31.5t120 101.5t70.5 179.5t23.5 265t-23.5 264t-70.5 178t-120 101.5t-171 32t-171 -32t-120 -101.5t-70.5 -178t-23.5 -264zM393 1438q0 76 37 131t94 55q33 0 80 -13.5 t96.5 -30.5t94.5 -30.5t75 -13.5q29 0 48.5 24.5t19.5 61.5h41q0 -76 -37 -131t-94 -55q-35 0 -81 13t-95 30.5t-94.5 31t-75.5 13.5q-29 0 -48.5 -24.5t-19.5 -61.5h-41z" />
<glyph unicode="&#xd6;" horiz-adv-x="1372" d="M92 612.5q0 153.5 38 265t97 177.5q55 61 112.5 98t116 57.5t117 26.5t113.5 6t112.5 -6t116 -26.5t117 -57.5t113.5 -98q59 -66 97 -177.5t38 -265t-38 -265t-97 -177.5q-55 -61 -113.5 -99t-117 -57.5t-116 -26.5t-112.5 -7t-113.5 7t-117 26.5t-115.5 57.5t-113 99 q-59 66 -97 177.5t-38 265zM301 612.5q0 -155.5 23.5 -265t70.5 -179.5t120 -101.5t171 -31.5t171 31.5t120 101.5t70.5 179.5t23.5 265t-23.5 264t-70.5 178t-120 101.5t-171 32t-171 -32t-120 -101.5t-70.5 -178t-23.5 -264zM375 1526q0 43 31.5 71.5t78.5 28.5 q45 0 78 -28.5t33 -71.5q0 -45 -32 -72t-79 -27t-78.5 27t-31.5 72zM774 1526q0 43 32 71.5t79 28.5q45 0 77.5 -28.5t32.5 -71.5q0 -45 -31.5 -72t-78.5 -27t-79 27t-32 72z" />
<glyph unicode="&#xd7;" d="M131 268l283 281l-279 276l60 60l274 -279l281 281l61 -60l-281 -278l281 -283l-57 -57l-283 280l-278 -278z" />
<glyph unicode="&#xd8;" horiz-adv-x="1359" d="M90 594q0 307 151.5 478t444.5 171q45 0 79 -3t64.5 -10t63.5 -18.5t74 -29.5l129 221l75 -41l-131 -225q137 -98 189.5 -233.5t52.5 -301.5q0 -150 -43 -266.5t-122 -196.5t-191.5 -121t-251.5 -41q-154 0 -283 60l-133 -225l-76 34l137 234q-229 154 -229 514zM299 600 q0 -152 17.5 -252t60.5 -170l549 932q-51 43 -105.5 60.5t-136.5 17.5q-209 0 -297 -142.5t-88 -445.5zM434 104q47 -39 102.5 -55t131.5 -16q109 0 185.5 31.5t125.5 101.5t71.5 179.5t22.5 264.5q0 82 -5 144.5t-16.5 111.5t-28.5 90t-42 82z" />
<glyph unicode="&#xd9;" horiz-adv-x="1333" d="M72 1161v62h448v-62l-100 4q-18 2 -29.5 -10t-11.5 -31v-716q0 -172 95 -268.5t267 -96.5q76 0 139.5 27.5t109.5 76t73 115t27 144.5v716q0 20 -10.5 32.5t-26.5 10.5l-101 -4v62h330v-62l-80 4q-18 2 -29.5 -10t-11.5 -31v-737q0 -88 -33.5 -162.5t-95 -129t-145.5 -85 t-182 -30.5q-248 0 -382.5 108.5t-134.5 319.5v714q0 16 -11 30.5t-27 12.5zM526 1647q0 6 11.5 15t29 17.5t38 14.5t38.5 6q23 0 35 -11.5t39 -39.5l194 -213q12 -14 24.5 -26.5t12.5 -20.5q0 -16 -26 -17q-10 0 -23.5 7t-17.5 12l-334 229q-6 4 -13.5 10.5t-7.5 16.5z" />
<glyph unicode="&#xda;" horiz-adv-x="1333" d="M72 1161v62h448v-62l-100 4q-18 2 -29.5 -10t-11.5 -31v-716q0 -172 95 -268.5t267 -96.5q76 0 139.5 27.5t109.5 76t73 115t27 144.5v716q0 20 -10.5 32.5t-26.5 10.5l-101 -4v62h330v-62l-80 4q-18 2 -29.5 -10t-11.5 -31v-737q0 -88 -33.5 -162.5t-95 -129t-145.5 -85 t-182 -30.5q-248 0 -382.5 108.5t-134.5 319.5v714q0 16 -11 30.5t-27 12.5zM580 1409q0 8 10 18l217 240q35 41 47 47t29 6q70 -16 93 -22t23 -27q0 -16 -12 -24l-360 -248q-6 -6 -21 -6q-26 0 -26 16z" />
<glyph unicode="&#xdb;" horiz-adv-x="1333" d="M72 1161v62h448v-62l-100 4q-18 2 -29.5 -10t-11.5 -31v-716q0 -172 95 -268.5t267 -96.5q76 0 139.5 27.5t109.5 76t73 115t27 144.5v716q0 20 -10.5 32.5t-26.5 10.5l-101 -4v62h330v-62l-80 4q-18 2 -29.5 -10t-11.5 -31v-737q0 -88 -33.5 -162.5t-95 -129t-145.5 -85 t-182 -30.5q-248 0 -382.5 108.5t-134.5 319.5v714q0 16 -11 30.5t-27 12.5zM424 1358q0 14 49 51t113 102l49 50l49 49q23 23 39 37t20.5 14t20.5 -14.5l39 -36.5l49 -49l49 -50q63 -66 112.5 -102.5t49.5 -50.5q0 -4 -3 -10.5t-16 -6.5q-10 0 -27.5 8.5t-29.5 16.5 l-244 152l-243 -152q-12 -8 -29.5 -16.5t-28.5 -8.5q-12 0 -15 6.5t-3 10.5z" />
<glyph unicode="&#xdc;" horiz-adv-x="1333" d="M72 1161v62h448v-62l-100 4q-18 2 -29.5 -10t-11.5 -31v-716q0 -172 95 -268.5t267 -96.5q76 0 139.5 27.5t109.5 76t73 115t27 144.5v716q0 20 -10.5 32.5t-26.5 10.5l-101 -4v62h330v-62l-80 4q-18 2 -29.5 -10t-11.5 -31v-737q0 -88 -33.5 -162.5t-95 -129t-145.5 -85 t-182 -30.5q-248 0 -382.5 108.5t-134.5 319.5v714q0 16 -11 30.5t-27 12.5zM422 1526q0 43 31.5 71.5t78.5 28.5q45 0 78 -28.5t33 -71.5q0 -45 -31.5 -72t-79 -27t-79 27t-31.5 72zM821 1526q0 43 32 71.5t79 28.5q45 0 77.5 -28.5t32.5 -71.5q0 -45 -31.5 -72t-78.5 -27 t-79 27t-32 72z" />
<glyph unicode="&#xdd;" horiz-adv-x="1038" d="M-10 1161v62h452v-62l-108 4q-23 2 -24 -15t9 -34l281 -467l268 475q6 12 5 26.5t-19 14.5l-106 -4v62h311v-62l-60 4h-2q-33 0 -57 -43l-299 -532v-492q0 -18 9 -30.5t32 -12.5l98 4v-59h-469v59l101 -4q39 0 39 45v439l-355 587q-20 39 -49 39h-2zM420 1409q0 8 10 18 l217 240q35 41 47.5 47t28.5 6q70 -16 93.5 -22t23.5 -27q0 -16 -13 -24l-360 -248q-6 -6 -21 -6q-26 0 -26 16z" />
<glyph unicode="&#xde;" horiz-adv-x="1073" d="M80 0v59l80 -4q20 -2 29.5 11.5t9.5 33.5v1022q0 16 -9.5 29.5t-29.5 13.5l-80 -4v62h450v-62l-100 4q-18 0 -29.5 -13t-11.5 -30v-106h168q217 0 319.5 -80t102.5 -252q0 -160 -99.5 -256t-279.5 -96h-211v-232q0 -20 9.5 -33.5t31.5 -11.5l100 4v-59h-450zM389 412 q0 -10 8.5 -18.5t18.5 -8.5h141q45 0 86 23.5t71.5 63.5t49 94.5t18.5 117.5q0 125 -68.5 203t-189.5 78h-135v-553z" />
<glyph unicode="&#xdf;" horiz-adv-x="1081" d="M72 0v59l73 -4q14 0 20.5 12.5t6.5 30.5v951q0 242 90 351t264 109q168 0 269.5 -63.5t101.5 -171.5q0 -41 -15.5 -74t-42 -60.5t-61.5 -51t-73 -46.5q-55 -33 -84 -67.5t-29 -100.5q0 -47 36 -92t95 -86l178 -129q86 -59 134 -127.5t48 -154.5q0 -74 -28.5 -129.5 t-77.5 -94t-116.5 -58t-147.5 -19.5q-33 0 -69 10t-64.5 28.5t-48 45t-19.5 61.5q0 45 19.5 61.5t48.5 16.5q45 0 58 -25.5t21.5 -56.5t27 -56.5t71.5 -25.5q72 0 118 37t46 123q0 66 -40 129t-114 117l-176 126q-70 51 -116 103.5t-46 112.5q0 33 7 60.5t25.5 55t51.5 55 t82 62.5q70 47 104.5 96t34.5 133q0 90 -54 147.5t-153 57.5q-94 0 -152.5 -60.5t-58.5 -166.5q0 -10 4.5 -59.5t16.5 -147.5q6 -49 8 -77.5t2 -57.5v-791q0 -16 7 -29.5t22 -13.5l94 4v-59h-399z" />
<glyph unicode="&#xe0;" horiz-adv-x="921" d="M55 215q0 162 130 237.5t417 75.5v119q0 94 -44 136t-136 42q-90 0 -122 -25.5t-32 -64.5q0 -27 10.5 -38t10.5 -39.5t-28 -46t-71 -17.5q-45 0 -67.5 26.5t-22.5 73.5q0 80 77 133.5t245 53.5q176 0 266 -69t90 -220v-504q0 -39 27 -39l76 4v-53h-291q6 37 8 76l4 80 q-45 -88 -115.5 -127t-160.5 -39q-271 0 -271 225zM242 229q0 -78 36.5 -122t102.5 -44q45 0 86 21.5t70.5 59.5t47 91.5t17.5 118.5v119q-199 0 -279.5 -57.5t-80.5 -186.5zM256 1284q0 6 11.5 15.5t28.5 17.5t37.5 14t39.5 6q23 0 35 -11t38 -40l195 -213 q12 -14 24.5 -26.5t12.5 -20.5q0 -16 -27 -16q-10 0 -23.5 7t-17.5 11l-334 229q-6 4 -13 10.5t-7 16.5z" />
<glyph unicode="&#xe1;" horiz-adv-x="921" d="M55 215q0 162 130 237.5t417 75.5v119q0 94 -44 136t-136 42q-90 0 -122 -25.5t-32 -64.5q0 -27 10.5 -38t10.5 -39.5t-28 -46t-71 -17.5q-45 0 -67.5 26.5t-22.5 73.5q0 80 77 133.5t245 53.5q176 0 266 -69t90 -220v-504q0 -39 27 -39l76 4v-53h-291q6 37 8 76l4 80 q-45 -88 -115.5 -127t-160.5 -39q-271 0 -271 225zM242 229q0 -78 36.5 -122t102.5 -44q45 0 86 21.5t70.5 59.5t47 91.5t17.5 118.5v119q-199 0 -279.5 -57.5t-80.5 -186.5zM266 1047q0 8 10 18l218 240q35 41 47 47t28 6q70 -16 93.5 -22.5t23.5 -26.5q0 -16 -12 -25 l-361 -248q-6 -6 -20 -6q-27 1 -27 17z" />
<glyph unicode="&#xe2;" horiz-adv-x="921" d="M55 215q0 162 130 237.5t417 75.5v119q0 94 -44 136t-136 42q-90 0 -122 -25.5t-32 -64.5q0 -27 10.5 -38t10.5 -39.5t-28 -46t-71 -17.5q-45 0 -67.5 26.5t-22.5 73.5q0 80 77 133.5t245 53.5q176 0 266 -69t90 -220v-504q0 -39 27 -39l76 4v-53h-291q6 37 8 76l4 80 q-45 -88 -115.5 -127t-160.5 -39q-271 0 -271 225zM141 995q0 14 49.5 51t112.5 103l49 49l49 49q23 23 39.5 37t20.5 14t20.5 -14t38.5 -37l49 -49l49 -49q63 -66 112.5 -102.5t49.5 -51.5q0 -4 -3 -10t-15 -6q-10 0 -27.5 8t-29.5 17l-244 151l-244 -151 q-12 -8 -29.5 -16.5t-27.5 -8.5q-12 0 -15.5 6t-3.5 10zM242 229q0 -78 36.5 -122t102.5 -44q45 0 86 21.5t70.5 59.5t47 91.5t17.5 118.5v119q-199 0 -279.5 -57.5t-80.5 -186.5z" />
<glyph unicode="&#xe3;" horiz-adv-x="921" d="M55 215q0 162 130 237.5t417 75.5v119q0 94 -44 136t-136 42q-90 0 -122 -25.5t-32 -64.5q0 -27 10.5 -38t10.5 -39.5t-28 -46t-71 -17.5q-45 0 -67.5 26.5t-22.5 73.5q0 80 77 133.5t245 53.5q176 0 266 -69t90 -220v-504q0 -39 27 -39l76 4v-53h-291q6 37 8 76l4 80 q-45 -88 -115.5 -127t-160.5 -39q-271 0 -271 225zM168 1075q0 76 37 131.5t94 55.5q33 0 80 -13.5t96 -31t94 -30.5t76 -13q29 0 48.5 24.5t19.5 61.5h41q0 -76 -37 -131.5t-94 -55.5q-35 0 -81 13.5t-95.5 31t-94.5 30.5t-76 13q-29 0 -48 -24.5t-19 -61.5h-41zM242 229 q0 -78 36.5 -122t102.5 -44q45 0 86 21.5t70.5 59.5t47 91.5t17.5 118.5v119q-199 0 -279.5 -57.5t-80.5 -186.5z" />
<glyph unicode="&#xe4;" horiz-adv-x="921" d="M55 215q0 162 130 237.5t417 75.5v119q0 94 -44 136t-136 42q-90 0 -122 -25.5t-32 -64.5q0 -27 10.5 -38t10.5 -39.5t-28 -46t-71 -17.5q-45 0 -67.5 26.5t-22.5 73.5q0 80 77 133.5t245 53.5q176 0 266 -69t90 -220v-504q0 -39 27 -39l76 4v-53h-291q6 37 8 76l4 80 q-45 -88 -115.5 -127t-160.5 -39q-271 0 -271 225zM158 1163q0 43 31.5 72t78.5 29q45 0 78 -29t33 -72q0 -45 -32 -71.5t-79 -26.5t-78.5 26.5t-31.5 71.5zM242 229q0 -78 36.5 -122t102.5 -44q45 0 86 21.5t70.5 59.5t47 91.5t17.5 118.5v119q-199 0 -279.5 -57.5 t-80.5 -186.5zM557 1163q0 43 32 72t79 29q45 0 77.5 -29t32.5 -72q0 -45 -31.5 -71.5t-78.5 -26.5t-79 26.5t-32 71.5z" />
<glyph unicode="&#xe5;" horiz-adv-x="921" d="M55 215q0 162 130 237.5t417 75.5v119q0 94 -44 136t-136 42q-90 0 -122 -25.5t-32 -64.5q0 -27 10.5 -38t10.5 -39.5t-28 -46t-71 -17.5q-45 0 -67.5 26.5t-22.5 73.5q0 80 77 133.5t245 53.5q176 0 266 -69t90 -220v-504q0 -39 27 -39l76 4v-53h-291q6 37 8 76l4 80 q-45 -88 -115.5 -127t-160.5 -39q-271 0 -271 225zM242 229q0 -78 36.5 -122t102.5 -44q45 0 86 21.5t70.5 59.5t47 91.5t17.5 118.5v119q-199 0 -279.5 -57.5t-80.5 -186.5zM264 1149q0 70 50.5 118t119.5 48q72 0 122 -47t50 -119t-50 -120t-122 -48t-121 48t-49 120z M350 1149q0 -35 24.5 -64.5t59.5 -29.5t60.5 29.5t25.5 64.5t-25.5 63.5t-60.5 28.5t-59.5 -28.5t-24.5 -63.5z" />
<glyph unicode="&#xe6;" horiz-adv-x="1474" d="M55 201q0 84 34 141t102.5 91t171 48.5t239.5 14.5v145q0 88 -38 136t-134 48q-76 0 -119 -21.5t-43 -68.5q0 -16 10.5 -37.5t10.5 -40.5q0 -29 -30 -46t-66 -17q-47 0 -70 26.5t-23 73.5q0 82 80 134.5t250 52.5q115 0 184.5 -27t104.5 -76q59 55 133 79t172 24 q180 0 269 -113t89 -324h-602q0 -180 68.5 -288.5t204.5 -108.5q39 0 81 13.5t79.5 38t68.5 57t49 69.5l49 -37q-45 -98 -138 -153t-202 -55q-164 0 -254 53t-135 145q-49 -94 -118.5 -141t-180.5 -47q-63 0 -117.5 12t-94.5 38t-62.5 66t-22.5 95zM242 190q0 -72 43 -102.5 t106 -30.5q41 0 79 22.5t67.5 62.5t47 96.5t17.5 123.5v82q-193 0 -276.5 -64.5t-83.5 -189.5zM780 496h408q12 0 16 19.5t4 37.5q0 55 -8 104.5t-29.5 87t-56.5 59t-88 21.5q-129 0 -187.5 -81.5t-58.5 -247.5z" />
<glyph unicode="&#xe7;" horiz-adv-x="870" d="M74 428q0 102 28.5 185t82 142.5t127 92.5t163.5 33q66 0 123 -16.5t100 -44t69 -66.5t26 -84t-27 -73t-61 -28q-82 0 -82 58q0 16 3 26.5t6 19.5t6 20.5t3 29.5q0 51 -50 76.5t-116 25.5q-111 0 -161 -94t-50 -309q0 -190 59.5 -288.5t178.5 -98.5q47 0 91 16.5t82 46 t65.5 69.5t39.5 87l51 -35q-35 -115 -121.5 -177t-220.5 -62q-197 0 -306 116.5t-109 331.5zM309 -406l15 50q25 -27 71.5 -27t80.5 32t34 79q0 27 -21.5 46t-48.5 33l-47 29q-23 14 -22 31q0 14 12 27l84 106h68l-56 -88q-12 -23 -12 -39q0 -18 27.5 -24.5l60.5 -14.5 t60.5 -26.5t27.5 -57.5q0 -86 -49 -137t-143 -51q-27 0 -67 4.5t-75 27.5z" />
<glyph unicode="&#xe8;" horiz-adv-x="919" d="M72 428q0 223 104.5 338t306.5 115q162 0 261.5 -102.5t103.5 -284.5v-60h-590q0 -186 64.5 -285.5t193.5 -101.5q55 0 100.5 15.5t79 41t58 57.5t39.5 64l47 -35q-20 -49 -56 -89t-83.5 -66.5t-102.5 -40.5t-111 -14q-217 0 -316 115.5t-99 332.5zM258 1284 q0 6 11.5 15.5t28.5 17.5t37.5 14t39.5 6q23 0 35 -11t39 -40l194 -213q12 -14 24.5 -26.5t12.5 -20.5q0 -16 -27 -16q-10 0 -23.5 7t-17.5 11l-333 229q-6 4 -13.5 10.5t-7.5 16.5zM260 485h373q18 0 29.5 13.5t11.5 54.5q0 137 -43 204.5t-148 67.5q-61 0 -104 -27.5 t-68.5 -73.5t-38 -107.5t-12.5 -131.5z" />
<glyph unicode="&#xe9;" horiz-adv-x="919" d="M72 428q0 223 104.5 338t306.5 115q162 0 261.5 -102.5t103.5 -284.5v-60h-590q0 -186 64.5 -285.5t193.5 -101.5q55 0 100.5 15.5t79 41t58 57.5t39.5 64l47 -35q-20 -49 -56 -89t-83.5 -66.5t-102.5 -40.5t-111 -14q-217 0 -316 115.5t-99 332.5zM260 485h373 q18 0 29.5 13.5t11.5 54.5q0 137 -43 204.5t-148 67.5q-61 0 -104 -27.5t-68.5 -73.5t-38 -107.5t-12.5 -131.5zM289 1047q0 8 10 18l217 240q35 41 47 47t29 6q70 -16 93.5 -22.5t23.5 -26.5q0 -16 -13 -25l-360 -248q-6 -6 -21 -6q-26 1 -26 17z" />
<glyph unicode="&#xea;" horiz-adv-x="919" d="M72 428q0 223 104.5 338t306.5 115q162 0 261.5 -102.5t103.5 -284.5v-60h-590q0 -186 64.5 -285.5t193.5 -101.5q55 0 100.5 15.5t79 41t58 57.5t39.5 64l47 -35q-20 -49 -56 -89t-83.5 -66.5t-102.5 -40.5t-111 -14q-217 0 -316 115.5t-99 332.5zM139 995q0 14 49.5 51 t112.5 103l49 49l49 49q23 23 39.5 37t20.5 14t20.5 -14t38.5 -37l49 -49l49 -49q63 -66 112.5 -102.5t49.5 -51.5q0 -4 -3 -10t-15 -6q-10 0 -27.5 8t-30.5 17l-243 151l-244 -151q-12 -8 -29.5 -16.5t-27.5 -8.5q-12 0 -15.5 6t-3.5 10zM260 485h373q18 0 29.5 13.5 t11.5 54.5q0 137 -43 204.5t-148 67.5q-61 0 -104 -27.5t-68.5 -73.5t-38 -107.5t-12.5 -131.5z" />
<glyph unicode="&#xeb;" horiz-adv-x="919" d="M72 428q0 223 104.5 338t306.5 115q162 0 261.5 -102.5t103.5 -284.5v-60h-590q0 -186 64.5 -285.5t193.5 -101.5q55 0 100.5 15.5t79 41t58 57.5t39.5 64l47 -35q-20 -49 -56 -89t-83.5 -66.5t-102.5 -40.5t-111 -14q-217 0 -316 115.5t-99 332.5zM156 1163 q0 43 31.5 72t78.5 29q45 0 78 -29t33 -72q0 -45 -32 -71.5t-79 -26.5t-78.5 26.5t-31.5 71.5zM260 485h373q18 0 29.5 13.5t11.5 54.5q0 137 -43 204.5t-148 67.5q-61 0 -104 -27.5t-68.5 -73.5t-38 -107.5t-12.5 -131.5zM555 1163q0 43 31.5 72t79.5 29q45 0 77.5 -29 t32.5 -72q0 -45 -31.5 -71.5t-79 -26.5t-79 26.5t-31.5 71.5z" />
<glyph unicode="&#xec;" horiz-adv-x="522" d="M31 1284q0 6 11 15.5t28.5 17.5t38 14t38.5 6q23 0 35.5 -11t38.5 -40l195 -213q12 -14 24.5 -26.5t12.5 -20.5q0 -16 -27 -16q-10 0 -23.5 7t-17.5 11l-334 229q-6 4 -13 10.5t-7 16.5zM72 0v53l75 -4q27 0 27 39v682q0 35 -25 41l-75 -4v53h276v-772q0 -39 27 -39l74 4 v-53h-379z" />
<glyph unicode="&#xed;" horiz-adv-x="522" d="M72 0v53l75 -4q27 0 27 39v682q0 35 -24 41l-76 -4v53h276v-772q0 -39 27 -39l74 4v-53h-379zM90 1047q0 8 10 18l217 240q35 41 47.5 47t28.5 6q70 -16 93.5 -22.5t23.5 -26.5q0 -16 -12 -25l-361 -248q-6 -6 -20 -6q-27 1 -27 17z" />
<glyph unicode="&#xee;" horiz-adv-x="522" d="M-57 995q0 14 49 51t112 103l48 49l49 49l41 37q16 14 20 14t21 -14l41 -37l49 -49l47 -49q63 -66 112.5 -102.5t49.5 -51.5q0 -4 -3.5 -10t-15.5 -6q-10 0 -27.5 8t-29.5 17l-244 151l-244 -151q-12 -8 -29.5 -16.5t-27.5 -8.5q-12 0 -15 6t-3 10zM72 0v53l75 -4 q27 0 27 39v682q0 35 -24 41l-76 -4v53h276v-772q0 -39 27 -39l74 4v-53h-379z" />
<glyph unicode="&#xef;" horiz-adv-x="522" d="M-49 1163q0 43 31.5 72t78.5 29q45 0 78 -29t33 -72q0 -45 -31.5 -71.5t-79 -26.5t-79 26.5t-31.5 71.5zM72 0v53l75 -4q27 0 27 39v682q0 35 -24 41l-76 -4v53h276v-772q0 -39 27 -39l74 4v-53h-379zM350 1163q0 43 32 72t79 29q45 0 77.5 -29t32.5 -72 q0 -45 -31.5 -71.5t-78.5 -26.5t-79 26.5t-32 71.5z" />
<glyph unicode="&#xf0;" horiz-adv-x="1007" d="M72 428q0 221 110.5 336t321.5 115q23 0 48.5 -4.5t49 -11.5t43 -16t27.5 -22q-29 72 -74 135.5t-96 100.5l-215 -125l-31 53l197 113q-68 47 -122.5 71.5t-101.5 24.5l41 45q66 0 139.5 -22.5t139.5 -63.5l196 113l29 -53l-168 -99q160 -111 245 -285t85 -397 q0 -209 -111.5 -334t-320.5 -125q-211 0 -321.5 114t-110.5 337zM258 428q0 -113 13.5 -189.5t43 -122.5t75.5 -66.5t114 -20.5q135 0 190.5 94t55.5 305q0 215 -57.5 307t-188.5 92q-70 0 -117 -19.5t-75.5 -66.5t-41 -123.5t-12.5 -189.5z" />
<glyph unicode="&#xf1;" horiz-adv-x="1075" d="M72 0v53l75 -4q27 6 27 39v682q0 35 -27 41l-75 -4v53h288q-10 -27 -10 -72v-110q41 94 121 148.5t186 54.5q145 0 210 -69t65 -222v-502q0 -39 26 -39l76 4v-53h-399v53l94 -4q27 6 27 39v465q0 66 -4 115t-17.5 81.5t-41 49t-75.5 16.5q-123 0 -195.5 -106.5 t-72.5 -282.5v-338q0 -39 27 -39l94 4v-53h-399zM244 1075q0 76 36.5 131.5t94.5 55.5q33 0 80 -13.5t96 -31t94 -30.5t76 -13q29 0 48 24.5t19 61.5h41q0 -76 -36.5 -131.5t-94.5 -55.5q-35 0 -81 13.5t-95 31t-94 30.5t-76 13q-29 0 -48 -24.5t-19 -61.5h-41z" />
<glyph unicode="&#xf2;" horiz-adv-x="966" d="M72 432q0 203 102 326t309 123t309.5 -123t102.5 -326q0 -207 -102.5 -329.5t-309.5 -122.5t-309 122.5t-102 329.5zM258 428q0 -205 51 -299t174 -94t174.5 94t51.5 299q0 207 -51.5 302t-174.5 95t-174 -95t-51 -302zM279 1284q0 6 11 15.5t28.5 17.5t38 14t38.5 6 q23 0 35 -11t39 -40l195 -213q12 -14 24 -26.5t12 -20.5q0 -16 -26 -16q-10 0 -23.5 7t-17.5 11l-334 229q-6 4 -13 10.5t-7 16.5z" />
<glyph unicode="&#xf3;" horiz-adv-x="966" d="M72 432q0 203 102 326t309 123t309.5 -123t102.5 -326q0 -207 -102.5 -329.5t-309.5 -122.5t-309 122.5t-102 329.5zM258 428q0 -205 51 -299t174 -94t174.5 94t51.5 299q0 207 -51.5 302t-174.5 95t-174 -95t-51 -302zM293 1047q0 8 10 18l217 240q35 41 47.5 47t28.5 6 q70 -16 93.5 -22.5t23.5 -26.5q0 -16 -13 -25l-360 -248q-6 -6 -21 -6q-26 1 -26 17z" />
<glyph unicode="&#xf4;" horiz-adv-x="966" d="M72 432q0 203 102 326t309 123t309.5 -123t102.5 -326q0 -207 -102.5 -329.5t-309.5 -122.5t-309 122.5t-102 329.5zM164 995q0 14 49 51t113 103l49 49l49 49q23 23 39 37t20 14t20.5 -14t39.5 -37l49 -49l49 -49q63 -66 112.5 -102.5t49.5 -51.5q0 -4 -3 -10t-16 -6 q-10 0 -27.5 8t-29.5 17l-244 151l-243 -151q-12 -8 -29.5 -16.5t-28.5 -8.5q-12 0 -15 6t-3 10zM258 428q0 -205 51 -299t174 -94t174.5 94t51.5 299q0 207 -51.5 302t-174.5 95t-174 -95t-51 -302z" />
<glyph unicode="&#xf5;" horiz-adv-x="966" d="M72 432q0 203 102 326t309 123t309.5 -123t102.5 -326q0 -207 -102.5 -329.5t-309.5 -122.5t-309 122.5t-102 329.5zM190 1075q0 76 37 131.5t95 55.5q33 0 80 -13.5t96 -31t94 -30.5t76 -13q29 0 48 24.5t19 61.5h41q0 -76 -37 -131.5t-94 -55.5q-35 0 -81 13.5t-95 31 t-94 30.5t-76 13q-29 0 -48.5 -24.5t-19.5 -61.5h-41zM258 428q0 -205 51 -299t174 -94t174.5 94t51.5 299q0 207 -51.5 302t-174.5 95t-174 -95t-51 -302z" />
<glyph unicode="&#xf6;" horiz-adv-x="966" d="M72 432q0 203 102 326t309 123t309.5 -123t102.5 -326q0 -207 -102.5 -329.5t-309.5 -122.5t-309 122.5t-102 329.5zM172 1163q0 43 32 72t79 29q45 0 77.5 -29t32.5 -72q0 -45 -31.5 -71.5t-78.5 -26.5t-79 26.5t-32 71.5zM258 428q0 -205 51 -299t174 -94t174.5 94 t51.5 299q0 207 -51.5 302t-174.5 95t-174 -95t-51 -302zM571 1163q0 43 32 72t79 29q45 0 78 -29t33 -72q0 -45 -32 -71.5t-79 -26.5t-79 26.5t-32 71.5z" />
<glyph unicode="&#xf7;" d="M39 510v84h864v-84h-864zM358 199q0 45 32 71.5t79 26.5t80 -25.5t33 -72.5q0 -45 -32 -71t-81 -26t-80 26t-31 71zM358 893q0 47 32 72.5t79 25.5t80 -25.5t33 -72.5q0 -45 -32 -70.5t-81 -25.5t-80 25.5t-31 70.5z" />
<glyph unicode="&#xf8;" horiz-adv-x="966" d="M72 432q0 203 102 326t309 123q59 0 109.5 -11.5t93.5 -31.5l109 194l69 -43l-108 -196q70 -59 104.5 -150.5t34.5 -210.5q0 -207 -102.5 -329.5t-309.5 -122.5q-90 0 -166 26l-100 -180l-78 35l103 182q-86 57 -128 155.5t-42 233.5zM258 428q0 -186 41 -281l340 609 q-51 70 -156 69q-123 0 -174 -95t-51 -302zM354 74q47 -39 129 -39q123 0 174.5 94t51.5 299q0 145 -25 236z" />
<glyph unicode="&#xf9;" horiz-adv-x="1073" d="M41 807v53h276v-557q0 -129 22.5 -192.5t102.5 -63.5q125 0 203 102.5t78 282.5v336q0 43 -25 43l-96 -4v53h299v-772q0 -39 27 -39l73 4v-53h-290q8 18 10 66.5t2 111.5q-41 -98 -125 -148t-199 -50q-137 0 -197.5 75.5t-60.5 247.5v467q0 41 -26 41zM254 1284 q0 6 11 15.5t28.5 17.5t38 14t39.5 6q23 0 35 -11t38 -40l195 -213q12 -14 24.5 -26.5t12.5 -20.5q0 -16 -27 -16q-10 0 -23.5 7t-17.5 11l-334 229q-6 4 -13 10.5t-7 16.5z" />
<glyph unicode="&#xfa;" horiz-adv-x="1073" d="M41 807v53h276v-557q0 -129 22.5 -192.5t102.5 -63.5q125 0 203 102.5t78 282.5v336q0 43 -25 43l-96 -4v53h299v-772q0 -39 27 -39l73 4v-53h-290q8 18 10 66.5t2 111.5q-41 -98 -125 -148t-199 -50q-137 0 -197.5 75.5t-60.5 247.5v467q0 41 -26 41zM326 1047 q0 8 10 18l217 240q35 41 47 47t29 6q70 -16 93 -22.5t23 -26.5q0 -16 -12 -25l-360 -248q-6 -6 -21 -6q-26 1 -26 17z" />
<glyph unicode="&#xfb;" horiz-adv-x="1073" d="M41 807v53h276v-557q0 -129 22.5 -192.5t102.5 -63.5q125 0 203 102.5t78 282.5v336q0 43 -25 43l-96 -4v53h299v-772q0 -39 27 -39l73 4v-53h-290q8 18 10 66.5t2 111.5q-41 -98 -125 -148t-199 -50q-137 0 -197.5 75.5t-60.5 247.5v467q0 41 -26 41zM217 995 q0 14 49 51t113 103l49 49l49 49q23 23 39 37t20.5 14t20.5 -14t39 -37l49 -49l49 -49q63 -66 112.5 -102.5t49.5 -51.5q0 -4 -3 -10t-15 -6q-10 0 -27.5 8t-30.5 17l-243 151l-244 -151q-12 -8 -29.5 -16.5t-27.5 -8.5q-12 0 -15.5 6t-3.5 10z" />
<glyph unicode="&#xfc;" horiz-adv-x="1073" d="M41 807v53h276v-557q0 -129 22.5 -192.5t102.5 -63.5q125 0 203 102.5t78 282.5v336q0 43 -25 43l-96 -4v53h299v-772q0 -39 27 -39l73 4v-53h-290q8 18 10 66.5t2 111.5q-41 -98 -125 -148t-199 -50q-137 0 -197.5 75.5t-60.5 247.5v467q0 41 -26 41zM197 1163 q0 43 31.5 72t78.5 29q45 0 78 -29t33 -72q0 -45 -32 -71.5t-79 -26.5t-78.5 26.5t-31.5 71.5zM596 1163q0 43 31.5 72t79.5 29q45 0 77.5 -29t32.5 -72q0 -45 -31.5 -71.5t-79 -26.5t-79 26.5t-31.5 71.5z" />
<glyph unicode="&#xfd;" horiz-adv-x="993" d="M-27 807v53h449v-53l-92 4q-14 0 -22.5 -11.5t-2.5 -23.5l250 -553l231 557q4 12 0 21.5t-20 9.5l-96 -4v53h317v-53l-84 4h-4q-33 0 -51 -39l-432 -1042q-49 -121 -104.5 -170t-137.5 -49q-53 0 -92 25.5t-43 74.5q0 53 25.5 78.5t54.5 25.5q31 0 47 -13t27.5 -29.5 l21.5 -30t32.5 -13.5t48.5 21.5t46 73.5l121 278l-357 782q-6 12 -13 19.5t-19 7.5zM373 1047q0 8 10 18l217 240q35 41 47 47t29 6q70 -16 93.5 -22.5t23.5 -26.5q0 -16 -13 -25l-360 -248q-6 -6 -21 -6q-26 1 -26 17z" />
<glyph unicode="&#xfe;" horiz-adv-x="1056" d="M41 1442v53h285q-4 -29 -6.5 -56.5t-2.5 -47.5v-695q29 86 98.5 135.5t172.5 49.5q180 0 266 -118t86 -335q0 -223 -94 -335.5t-295 -112.5q-84 0 -144.5 27.5t-89.5 80.5v-487q0 -41 27 -41l127 4v-53h-422v53l66 -4q27 2 26 41v1804q0 41 -26 41zM322 377 q0 -184 60 -263t169 -79q57 0 97 19.5t62.5 64.5t33 120.5t10.5 188.5q0 111 -8.5 186.5t-30 122.5t-57 67.5t-93.5 20.5q-119 0 -181 -101t-62 -261v-86z" />
<glyph unicode="&#xff;" horiz-adv-x="993" d="M-27 807v53h449v-53l-92 4q-14 0 -22.5 -11.5t-2.5 -23.5l250 -553l231 557q4 12 0 21.5t-20 9.5l-96 -4v53h317v-53l-84 4h-4q-33 0 -51 -39l-432 -1042q-49 -121 -104.5 -170t-137.5 -49q-53 0 -92 25.5t-43 74.5q0 53 25.5 78.5t54.5 25.5q31 0 47 -13t27.5 -29.5 l21.5 -30t32.5 -13.5t48.5 21.5t46 73.5l121 278l-357 782q-6 12 -13 19.5t-19 7.5zM240 1163q0 43 31.5 72t78.5 29q45 0 78 -29t33 -72q0 -45 -32 -71.5t-79 -26.5t-78.5 26.5t-31.5 71.5zM639 1163q0 43 31.5 72t79.5 29q45 0 77.5 -29t32.5 -72q0 -45 -31.5 -71.5 t-79 -26.5t-79 26.5t-31.5 71.5z" />
<glyph unicode="&#x152;" horiz-adv-x="1777" d="M94 598q0 309 146.5 477t461.5 168q41 0 74 -3t63.5 -7t60.5 -7t67 -3h669v-316h-55q0 139 -69.5 198.5t-221.5 59.5h-192q-27 0 -27 -28v-473h156q66 0 111.5 55t45.5 153h56v-473h-56q0 92 -47 150.5t-110 58.5h-156v-526q0 -27 27 -27h235q141 0 214 81t73 231h55 v-373q-49 6 -180 6h-512q-55 0 -106.5 -3t-90 -7t-63.5 -7t-27 -3q-291 0 -446.5 159.5t-155.5 458.5zM293 606q0 -152 22.5 -259t69.5 -177t123 -101.5t180 -31.5q61 0 100 13t62.5 34.5t32 47.5t8.5 52v893q0 47 -59.5 80t-143.5 33q-209 0 -302 -138.5t-93 -445.5z" />
<glyph unicode="&#x153;" horiz-adv-x="1558" d="M72 413.5q0 94.5 21.5 179.5t68.5 149.5t121.5 101.5t181.5 37q244 0 336 -152q53 78 125.5 115t201.5 37q168 0 263.5 -103.5t95.5 -288.5v-45h-602q0 -188 71.5 -292.5t206.5 -104.5q45 0 89 16.5t81 42t63.5 57.5t37.5 62l47 -35q-35 -92 -126 -151t-216 -59 q-109 0 -191 34.5t-147 116.5q-31 -43 -61.5 -71.5t-69.5 -47t-88.5 -25.5t-114.5 -7q-94 0 -168 32.5t-124 90t-76.5 137t-26.5 174zM258 416q0 -78 9 -147.5t34 -122t65 -82t101 -29.5q76 0 123 25.5t72.5 75.5t35 123t9.5 165q0 115 -12.5 191.5t-41 123.5t-75 66.5 t-113.5 19.5q-109 0 -158 -99t-49 -310zM885 496h403q14 0 19.5 10t5.5 20q0 160 -45 229.5t-150 69.5q-109 0 -171 -75.5t-62 -253.5z" />
<glyph unicode="&#x178;" horiz-adv-x="1038" d="M-10 1161v62h452v-62l-108 4q-23 2 -24 -15t9 -34l281 -467l268 475q6 12 5 26.5t-19 14.5l-106 -4v62h311v-62l-60 4h-2q-33 0 -57 -43l-299 -532v-492q0 -18 9 -30.5t32 -12.5l98 4v-59h-469v59l101 -4q39 0 39 45v439l-355 587q-20 39 -49 39h-2zM276 1526 q0 43 32 71.5t79 28.5q45 0 78 -28.5t33 -71.5q0 -45 -32 -72t-79 -27t-79 27t-32 72zM676 1526q0 43 31.5 71.5t78.5 28.5q45 0 78 -28.5t33 -71.5q0 -45 -31.5 -72t-79 -27t-79 27t-31.5 72z" />
<glyph unicode="&#x2c6;" horiz-adv-x="823" d="M100 995q0 14 49.5 51t112.5 103l49 49l49 49q23 23 39.5 37t20.5 14t20.5 -14t38.5 -37l49 -49l50 -49q63 -66 112 -102.5t49 -51.5q0 -4 -3 -10t-15 -6q-10 0 -27.5 8t-29.5 17l-244 151l-244 -151q-12 -8 -29.5 -16.5t-27.5 -8.5q-12 0 -15.5 6t-3.5 10z" />
<glyph unicode="&#x2dc;" horiz-adv-x="819" d="M117 1075q0 76 36.5 131.5t94.5 55.5q33 0 80 -13.5t96 -31t94 -30.5t76 -13q29 0 48.5 24.5t19.5 61.5h40q0 -76 -36.5 -131.5t-94.5 -55.5q-35 0 -81 13.5t-95 31t-94 30.5t-76 13q-29 0 -48 -24.5t-19 -61.5h-41z" />
<glyph unicode="&#x2013;" horiz-adv-x="976" d="M37 391v80h903v-80h-903z" />
<glyph unicode="&#x2014;" horiz-adv-x="1626" d="M0 391v80h1626v-80h-1626z" />
<glyph unicode="&#x2018;" horiz-adv-x="450" d="M94 977q0 57 22.5 109.5t56.5 96.5t74 79.5t72 58.5l39 -23q-25 -23 -49 -52t-44.5 -62t-34 -63.5t-13.5 -57.5q0 -25 6 -38t15.5 -17t23.5 -4h29q41 0 53 -31t12 -58q0 -43 -35.5 -75.5t-82.5 -32.5q-72 0 -108 44t-36 126z" />
<glyph unicode="&#x2019;" horiz-adv-x="450" d="M131 799q25 23 49.5 52.5t45 62t33.5 63.5t13 57q0 35 -21.5 47.5t-51.5 12.5q-41 0 -53.5 30.5t-12.5 57.5q0 43 36 75.5t83 32.5q72 0 107.5 -44t35.5 -126q0 -57 -22.5 -109.5t-56 -96.5t-73.5 -79.5t-73 -58.5z" />
<glyph unicode="&#x201a;" horiz-adv-x="540" d="M209 -305q25 23 49.5 52.5t45 62t33.5 63.5t13 57q0 35 -21.5 47.5t-52.5 12.5q-41 0 -53 30.5t-12 57.5q0 43 36 75.5t83 32.5q72 0 107.5 -44t35.5 -126q0 -57 -22.5 -109t-56.5 -96t-73.5 -80t-72.5 -59z" />
<glyph unicode="&#x201c;" horiz-adv-x="790" d="M94 977q0 57 22.5 109.5t56.5 96.5t74 79.5t72 58.5l39 -23q-25 -23 -49 -52t-44.5 -62t-34 -63.5t-13.5 -57.5q0 -25 6 -38t15.5 -17t23.5 -4h29q41 0 53 -31t12 -58q0 -43 -35.5 -75.5t-82.5 -32.5q-72 0 -108 44t-36 126zM434 977q0 57 22.5 109.5t56.5 96.5t74 79.5 t72 58.5l39 -23q-25 -23 -49 -52t-44.5 -62t-34 -63.5t-13.5 -57.5q0 -25 6 -38t15.5 -17t23.5 -4h29q41 0 53 -31t12 -58q0 -43 -35.5 -75.5t-82.5 -32.5q-72 0 -108 44t-36 126z" />
<glyph unicode="&#x201d;" horiz-adv-x="790" d="M123 799q25 23 49.5 52.5t45 62t33.5 63.5t13 57q0 35 -21.5 47.5t-52.5 12.5q-41 0 -53 30.5t-12 57.5q0 43 36 75.5t83 32.5q72 0 107.5 -44t35.5 -126q0 -57 -22.5 -109.5t-56.5 -96.5t-73.5 -79.5t-72.5 -58.5zM463 799q25 23 49.5 52.5t45 62t33.5 63.5t13 57 q0 35 -21.5 47.5t-52.5 12.5q-41 0 -53 30.5t-12 57.5q0 43 36 75.5t83 32.5q72 0 107.5 -44t35.5 -126q0 -57 -22.5 -109.5t-56.5 -96.5t-73.5 -79.5t-72.5 -58.5z" />
<glyph unicode="&#x201e;" horiz-adv-x="946" d="M209 -305q25 23 49.5 52.5t45 62t33.5 63.5t13 57q0 35 -21.5 47.5t-52.5 12.5q-41 0 -53 30.5t-12 57.5q0 43 36 75.5t83 32.5q72 0 107.5 -44t35.5 -126q0 -57 -22.5 -109t-56.5 -96t-73.5 -80t-72.5 -59zM578 -305q25 23 49 52.5t44.5 62t34 63.5t13.5 57 q0 35 -21.5 47.5t-52.5 12.5q-41 0 -53 30.5t-12 57.5q0 43 35.5 75.5t82.5 32.5q72 0 108 -44t36 -126q0 -57 -22.5 -109t-56.5 -96t-74 -80t-73 -59z" />
<glyph unicode="&#x2022;" horiz-adv-x="960" d="M215 506q0 53 20.5 97t56.5 75t84 48t103.5 17t103.5 -17t82.5 -48t55 -75t20.5 -97t-20.5 -97t-56 -75t-82.5 -48.5t-103 -17.5q-117 0 -190.5 67t-73.5 171z" />
<glyph unicode="&#x2026;" horiz-adv-x="1411" d="M123 96.5q0 53.5 38 86t95 32.5t95 -31.5t38 -87.5q0 -53 -38 -84.5t-95 -31.5t-95 31.5t-38 85zM573 96.5q0 53.5 38 86t95.5 32.5t95.5 -31.5t38 -87.5q0 -53 -38 -84.5t-95.5 -31.5t-95.5 31.5t-38 85zM1022 96.5q0 53.5 38 86t95 32.5t95 -31.5t38 -87.5 q0 -53 -38 -84.5t-95 -31.5t-95 31.5t-38 85z" />
<glyph unicode="&#x2039;" horiz-adv-x="462" d="M53 383l305 350h74l-201 -350l201 -350h-74z" />
<glyph unicode="&#x203a;" horiz-adv-x="460" d="M31 33l200 350l-200 350h73l306 -350l-306 -350h-73z" />
<glyph unicode="&#x20ac;" horiz-adv-x="954" d="M4 444l21 84h98q-2 14 -2 29v47v47q0 12 2 27h-119l21 84h104q31 231 154 356t315 125q33 0 57.5 -2t50 -10t60.5 -22.5t88 -41.5q16 -6 37.5 -9t38.5 -3q-4 -59 -5 -97t-1 -73q0 -10 2 -27v-28q2 -16 3 -28.5t1 -14.5h-37q-12 63 -41 118.5t-69 96.5t-90 65.5t-103 24.5 q-119 0 -197 -114.5t-100 -315.5h491l-20 -84h-479q-2 -14 -2 -27v-47v-26q0 -14 2 -25q0 -12 2 -25h497l-20 -84h-471q27 -195 107.5 -302t197.5 -107q57 0 107.5 23.5t89.5 64.5t66.5 97t37.5 122h45q-2 -18 -4 -43t-2 -49l-4 -47v-35q0 -57 6 -96h-10q-25 0 -52.5 -9.5 t-58.5 -21.5l-57 -25q-31 -14 -60 -20q-70 -16 -112 -16q-182 0 -305 121.5t-154 342.5h-127z" />
<glyph unicode="&#x2122;" horiz-adv-x="1552" d="M78 1153h530v-147h-41q0 70 -31.5 89t-109.5 19h-31v-498q0 -49 90 -49v-30h-286v30q90 0 90 39v508l-96 -2q-23 -2 -42.5 -12t-23.5 -27l-10 -67h-39v147zM688 537v30q88 0 88 41v490q0 25 -63 24v31h184l190 -455l185 455h196v-31h-47q-18 0 -24 -30v-467 q0 -37 20.5 -47.5t57.5 -10.5v-30h-256v30q41 0 59 11.5t18 46.5v462h-12l-217 -550h-16l-217 550h-17v-471q0 -49 90 -49v-30h-219z" />
<glyph unicode="&#xe000;" horiz-adv-x="860" d="M0 860h860v-860h-860v860z" />
<glyph unicode="&#xfb01;" horiz-adv-x="1128" d="M72 0v53l96 -4q14 0 10 9.5t-4 29.5v721h-80v51h80v135q0 104 10.5 192.5t32.5 141.5q39 90 114 134t173 44h28q92 0 156 -34q72 -41 72 -127q0 -39 -26.5 -53.5t-55.5 -14.5q-23 0 -48.5 13.5t-25.5 39.5q0 31 7 42t7 26q0 23 -21.5 40t-80.5 17q-31 0 -63.5 -10 t-58 -37t-42 -72t-16.5 -114q0 -82 6 -158t6 -145v-60h219v-51h-217v-721q0 -39 27 -39l135 4v-53h-440zM678 0v53l76 -4q27 0 26 39v682q0 35 -24 41l-76 -4v53h276v-772q0 -39 27 -39l74 4v-53h-379zM743 1296q0 45 32 71t79 26q49 0 81 -26t32 -71q0 -47 -32 -72.5 t-81 -25.5q-47 0 -79 25.5t-32 72.5z" />
<glyph unicode="&#xfb02;" horiz-adv-x="1128" d="M72 0v53l96 -4q14 0 10 9.5t-4 29.5v721h-80v51h80v135q0 104 10.5 192.5t32.5 141.5q39 90 114 134t173 44h28q92 0 156 -34q72 -41 72 -127q0 -39 -26.5 -53.5t-55.5 -14.5q-23 0 -48.5 13.5t-25.5 39.5q0 31 7 42t7 26q0 23 -21.5 40t-80.5 17q-31 0 -63.5 -10 t-58 -37t-42 -72t-16.5 -114q0 -82 6 -158t6 -145v-60h219v-51h-217v-721q0 -39 27 -39l135 4v-53h-440zM678 0v53l76 -4q27 6 26 39v1319q0 33 -24 43l-76 -4v51h276v-1409q0 -39 27 -39l74 4v-53h-379z" />
<glyph unicode="&#xfb03;" horiz-adv-x="1734" d="M72 0v53l96 -4q14 0 10 9.5t-4 29.5v721h-80v51h80v135q0 104 10.5 192.5t32.5 141.5q39 90 114 134t173 44h28q92 0 156 -34q72 -41 72 -127q0 -39 -26.5 -53.5t-55.5 -14.5q-23 0 -48.5 13.5t-25.5 39.5q0 31 7 42t7 26q0 23 -21.5 40t-80.5 17q-31 0 -63.5 -10 t-58 -37t-42 -72t-16.5 -114q0 -82 6 -158t6 -145v-60h219v-51h-217v-721q0 -39 27 -39l135 4v-53h-440zM678 0v53l96 -4q14 0 10 9.5t-4 29.5v721h-80v51h80v135q0 104 10.5 192.5t32.5 141.5q39 90 114 134t173 44h29q92 0 155 -34q72 -41 72 -127q0 -39 -26.5 -53.5 t-55.5 -14.5q-23 0 -48.5 13.5t-25.5 39.5q0 31 7.5 42t7.5 26q0 23 -21.5 40t-81.5 17q-31 0 -63.5 -10t-58 -37t-42 -72t-16.5 -114q0 -82 6 -158t6 -145v-60h220v-51h-218v-721q0 -39 27 -39l135 4v-53h-440zM1284 0v53l76 -4q27 0 26 39v682q0 35 -24 41l-76 -4v53h277 v-772q0 -39 26 -39l74 4v-53h-379zM1350 1296q0 45 31.5 71t78.5 26q49 0 81 -26t32 -71q0 -47 -32 -72.5t-81 -25.5q-47 0 -78.5 25.5t-31.5 72.5z" />
<glyph unicode="&#xfb04;" horiz-adv-x="1734" d="M72 0v53l96 -4q14 0 10 9.5t-4 29.5v721h-80v51h80v135q0 104 10.5 192.5t32.5 141.5q39 90 114 134t173 44h28q92 0 156 -34q72 -41 72 -127q0 -39 -26.5 -53.5t-55.5 -14.5q-23 0 -48.5 13.5t-25.5 39.5q0 31 7 42t7 26q0 23 -21.5 40t-80.5 17q-31 0 -63.5 -10 t-58 -37t-42 -72t-16.5 -114q0 -82 6 -158t6 -145v-60h219v-51h-217v-721q0 -39 27 -39l135 4v-53h-440zM678 0v53l96 -4q14 0 10 9.5t-4 29.5v721h-80v51h80v135q0 104 10.5 192.5t32.5 141.5q39 90 114 134t173 44h29q92 0 155 -34q72 -41 72 -127q0 -39 -26.5 -53.5 t-55.5 -14.5q-23 0 -48.5 13.5t-25.5 39.5q0 31 7.5 42t7.5 26q0 23 -21.5 40t-81.5 17q-31 0 -63.5 -10t-58 -37t-42 -72t-16.5 -114q0 -82 6 -158t6 -145v-60h220v-51h-218v-721q0 -39 27 -39l135 4v-53h-440zM1284 0v53l76 -4q27 6 26 39v1319q0 33 -24 43l-76 -4v51h277 v-1409q0 -39 26 -39l74 4v-53h-379z" />
</font>
</defs>
</svg>
